<?xml version="1.0" encoding="UTF-8"?>
<svg id="Layer_1" xmlns="http://www.w3.org/2000/svg" version="1.1" viewBox="0 0 400.3 241.22">
  <!-- Generator: Adobe Illustrator 29.8.7, SVG Export Plug-In . SVG Version: 2.1.1 Build 1)  -->
  <defs>
    <style>
      .st0 {
        fill: #c1e5f4;
      }
    </style>
  </defs>
  <g>
    <g>
      <path class="st0" d="M81.06,180.84c-3.85,11.49-13.67,44.5-16.72,54.54-1.02,0-2.4-.07-3.93-.07-2.18,0-4,0-4.94.07-1.67-5.74-5.74-21.3-8.87-33.67-1.24-5.09-2.33-9.89-3.05-13.6h-.29c-.8,3.78-1.89,8.94-3.2,13.74-3.34,12.36-7.63,27.19-9.38,33.52-1.31,0-2.76-.07-4.14-.07-2.04,0-3.27.07-4.29.07-3.35-10.91-12.07-43.05-16.36-54.54h8.73c.87,4.65,5.96,22.98,9.24,35.56,1.53,5.45,2.47,9.53,3.13,12.51h.29c.73-3.13,1.82-7.2,3.27-12.65,3.05-12,7.78-29.09,9.02-35.41h9.02c1.38,6.18,5.38,22.61,8.73,35.56,1.46,5.31,2.4,9.67,3.13,12.65h.44c.65-2.98,1.82-7.2,3.2-12.43,3.13-12.36,8.36-30.39,9.38-35.78h7.63-.04Z"/>
      <path class="st0" d="M104.62,236.32c-13.02,0-22.11-8.51-22.11-23.34s9.53-22.25,22.11-22.25,22.25,7.42,22.25,22.25-9.16,23.34-22.25,23.34ZM104.62,196.91c-8.8,0-15.27,5.02-15.27,16.29s6.33,17.02,15.27,17.02,15.34-5.89,15.34-17.02-6.47-16.29-15.34-16.29Z"/>
      <path class="st0" d="M143.66,201.49c2.25-7.2,7.27-10.47,14.54-10.47,3.27,0,5.96.65,8.36,1.6-.44,1.67-1.02,4.87-1.24,6.83-2.33-1.16-4.94-1.67-7.93-1.67-7.49,0-12.87,4.22-12.87,14.76,0,7.78,0,17.89.22,22.83h-7.63c.15-6.11.15-12.58.15-21.96s0-15.49-.15-21.74h6.4c-.07,2.69-.22,5.89-.36,9.82h.51Z"/>
      <path class="st0" d="M207.72,235.37c.15-6.84.22-14.76.22-26.47,0-7.71-3.35-11.93-12-11.93s-14.76,4.14-14.76,13.31c0,15.2.07,20.65.15,25.09h-7.34c.15-5.89.22-11.78.22-21.09s-.07-16.94-.22-22.61h7.34c-.07,2.91-.07,5.24-.15,8.14l.44.07c2.84-5.89,8.8-8.94,17.16-8.94,10.69,0,16.29,5.6,16.29,16.58,0,7.2-.15,9.6-.15,13.96,0,4.95.07,9.38.22,13.89h-7.42Z"/>
    </g>
    <g>
      <path class="st0" d="M317.49,205.86c-6.33,7.87-15.75,8.18-23.24,4.09-3.67,8.65-8.7,17.85-13.6,25.33h-8.63l-9.86-30.68c-3.6,10.31-9.21,22.02-14.03,30.83h-8.99l-18.34-53.72,9.28-2.44,14.82,44.83c5.54-11.17,11.37-22.89,13.09-32.48l-3.31-10.23,8.85-2.2,14.6,45.54c3.67-6.45,7.12-13.53,9.64-19.98-3.45-3.86-5.68-8.89-5.61-14.39.07-7.79,4.1-11.48,8.63-11.48s8.56,3.7,8.56,11.48c0,3.46-.86,7.63-2.37,12.19,5.32,2.75,11.5,4.01,15.38-1.1l5.12,4.4h0ZM290.51,196.58c.58-2.2.93-4.25,1.01-5.98.07-2.44-.5-3.54-1.44-3.54-.79,0-1.37,1.02-1.37,3.22s.65,4.41,1.8,6.29h0Z"/>
      <path class="st0" d="M353.52,227.81c-5.97,5.4-14.6,8.2-22.8,8.2-12.52,0-23.67-6.55-23.67-20.36,0-11.87,8.13-19.71,19.06-19.71,9.06,0,15.32,5.4,15.32,12.52,0,8.56-9.14,12.81-19.28,12.81-1.44,0-2.88-.07-4.32-.29,2.52,4.68,7.91,6.84,13.81,6.84s12.73-2.23,17.41-6.26l4.46,6.26h.01ZM316.4,214.21c1.29.22,2.59.29,3.96.29,6.04,0,11.94-1.73,11.94-5.68,0-2.81-3.09-4.89-6.62-4.89-4.32,0-9.06,3.09-9.28,10.29h0Z"/>
      <path class="st0" d="M375.89,227.09c-3.24,5.54-9.21,8.92-15.54,8.92s-11.94-3.6-11.94-11.01v-43.38h8.99v41.22c0,3.45,1.8,5.18,4.46,5.18,2.95,0,5.9-1.94,8.56-5.61l5.47,4.68h0Z"/>
      <path class="st0" d="M396.46,227.09c-3.24,5.54-9.21,8.92-15.54,8.92s-11.94-3.6-11.94-11.01v-43.38h8.99v41.22c0,3.45,1.8,5.18,4.46,5.18,2.95,0,5.9-1.94,8.56-5.61l5.47,4.68h0Z"/>
    </g>
  </g>
  <path class="st0" d="M59.47,180.84l139.21-66.72c1.38-.67,1.95-2.34,1.28-3.72l-.61-1.25c-.67-1.38-2.34-1.95-3.72-1.28L59.52,173.08"/>
  <path class="st0" d="M340.14,173.25l-136.59-63.65c-.98-.46-1.61-1.44-1.61-2.52v-7.39c0-4.86,1.25-9.67,3.6-13.91l.43-.77c2.69-4.83,5.85-9.37,9.38-13.51,5.93-6.95,12.99-17.1,12.99-25.99,0-20.15-16.39-36.54-36.54-36.54s-36.54,16.39-36.54,36.54c0,1.42.09,2.87.25,4.3.22,1.91,1.95,3.27,3.85,3.05,1.91-.22,3.27-1.95,3.05-3.85-.14-1.16-.21-2.33-.21-3.49,0-16.32,13.28-29.59,29.59-29.59s29.59,13.28,29.59,29.59c0,5.21-4.13,13.04-11.33,21.48-3.83,4.48-7.24,9.41-10.16,14.64l-.43.78c-2.93,5.27-4.48,11.25-4.48,17.28v11.72c0,1.08.63,2.06,1.6,2.52l143.69,67.02"/>
</svg>