<?xml version="1.0" encoding="UTF-8"?>
<svg xmlns="http://www.w3.org/2000/svg" version="1.1" viewBox="0 0 360 360">
  <defs>
    <style>
      .cls-1, .cls-2 {
        fill: none;
      }

      .cls-3 {
        fill: #f4b78a;
      }

      .cls-4 {
        fill: #ece8e5;
      }

      .cls-5 {
        fill: #b0afad;
      }

      .cls-6 {
        fill: #d78883;
      }

      .cls-7 {
        fill: #f37d7c;
      }

      .cls-2 {
        stroke: #d78883;
        stroke-miterlimit: 10;
        stroke-width: 2.67px;
      }

      .cls-8 {
        fill: #fff;
      }

      .cls-9 {
        fill: #f9daaf;
      }

      .cls-10 {
        fill: #301b1c;
      }

      .cls-11 {
        fill: #8db4ae;
      }

      .cls-12 {
        fill: #968e8e;
      }

      .cls-13 {
        fill: #d8d4d2;
      }
    </style>
  </defs>
  <!-- Generator: Adobe Illustrator 28.7.2, SVG Export Plug-In . SVG Version: 1.2.0 Build 154)  -->
  <g>
    <g id="Layer_1">
      <ellipse class="cls-6" cx="177.96" cy="180" rx="158.66" ry="125.57"/>
      <ellipse class="cls-2" cx="177.96" cy="180" rx="163.96" ry="129.77"/>
      <g>
        <path class="cls-1" d="M212.21,254.63l.66-4.31s.03-.06.07-.07c1.06-.12,2.22-.31,3.49-.59,1.26-.27,2.29-.7,2.59-2.11.26-1.24.19-2.58.13-3.93-.36-8.61-.78-17.23-1.28-25.83-.17-3.05-.39-5.65-.66-7.81-.31-2.53-.83-4.55-3.22-5.97-1.9-1.13-4.4-1.94-6.79-2.23-3.15-.37-3.84-2.63-4.12-5.39-.09-.87-.18-1.78-.27-2.72-.08-.76-.21-1.4-.4-1.91-.55-1.5-2.21-1.69-3.58-1.63-.06,0-.1-.04-.1-.1,0-.59.09-1.9-.43-2.31-.05-.04-.08-.09-.07-.16l1.45-9.28s.04-.06.08-.04c.41.14.82.25,1.25.3,1.92.24,3.84.02,5.75-.53,2.64-.76,5.12-1.77,7.47-3.06,3.02-1.66,5.2-4.04,6.06-7.45.31-1.22.48-2.31.51-3.27.24-7.83.37-16.51.49-24.84.02-1.21.05-2.4-.14-3.52-.28-1.63-1.01-3-2.19-4.1-1.37-1.28-3.52-1.93-5.36-2.25-2.58-.45-5.18-.57-7.85-.68-.05,0-.09-.04-.08-.09l.38-5.85c0-.07.06-.12.12-.13.62-.07,1.86-.42,2-1.16.2-1.06-1.56-2.01-2.37-2.28-.31-.1-.62-.19-.93-.26-.07-.02-.1-.06-.11-.13-.07-2.01-.15-4.02-.67-5.98-.66-2.52-2.59-3.7-4.91-4.49-2.83-.97-5.9-1.52-9.04-1.96-.11-.02-.18-.08-.19-.2-.06-.53-.03-1.07.1-1.64.21-.98,1.52-.52,1.55-1.53.07-2.22-2.61-2.61-4.25-2.77-4.49-.43-9.36-.54-13.74.2-1.2.2-2.39.72-2.33,2.15.02.46.26.77.72.92,1.15.38,1.17,1.83,1,2.82,0,.06-.05.09-.11.09-2.26.11-4.53.4-6.79.87-2.04.42-3.82,1.01-5.34,1.8-1.57.81-2.58,2.04-3.02,3.7-.5,1.89-.62,3.75-.67,5.76,0,.06-.03.11-.09.14-.43.2-.86.31-1.29.36-.78.08-1.6.14-2.44.18-.83.04-1.49.39-1.96,1.06-.07.09-.04.11.06.07.77-.34,1.71-.51,2.79-.5.1,0,.11.03.03.09-.54.32-1.12.83-1.76.9-1.01.11-2.06.25-3.12.39-.78.11-1.64.55-1.28,1.52.32.85,1.35,1.48,2.12,1.89,1.41.75,1.97,2.06,2.75,3.41.18.31.47.48.86.49.95.03,1.92.11,2.89.23.05,0,.09.05.09.1.31,6.74.8,13.37,1.47,19.88.66,6.39,1.67,13.35,3,20.86.87,4.89,1.74,9.82,2.6,14.8.16.93.31,1.87.46,2.83,0,.06,0,.11-.06.14l-.17.12c-.06.04-.09.1-.09.18v1.84c0,.06-.05.1-.11.11-1,.03-1.95.19-2.83.47-.96.31-1.49.91-1.7,1.91-.09.42-.14.7-.14.84-.06,1.84-.09,3.71-.6,5.56-.43,1.6-1.42,2.19-2.95,2.54-1.99.45-4.08.83-5.94,1.69-3.49,1.63-4.61,5.14-5,8.69-.14,1.33-.26,2.62-.33,3.86-.48,7.85-.9,16.57-1.28,26.18-.03.89-.17,1.7-.27,2.57-.15,1.27-.02,2.49.42,3.67.26.71.77,1.22,1.53,1.51,1.04.4,2.37.67,4.01.83.04,0,.08.03.09.08l.74,4.5"/>
        <path class="cls-1" d="M212.21,254.63c-.04.17-.08.38-.11.64-.03.25-.15.47-.42.54-.41.1-.8.17-1.17.2-2.17.14-4.28.12-6.32-.09-.31-.03-.61-.11-.89-.23-.12-.05-.2-.14-.22-.27l-.17-.99"/>
        <path class="cls-1" d="M202.9,254.41l-.95-4.43s-.02-.03-.04-.03c-14.07-.16-28.16-.22-42.26-.17-.03,0-.04.02-.04.03l-.75,4.51"/>
        <path class="cls-1" d="M158.87,254.33c-.15.59.03,1.4-.82,1.5-2.71.34-5.27.35-7.69.03-.23-.03-.44-.11-.65-.24-.04-.03-.08-.08-.09-.13l-.15-.81"/>
        <path class="cls-1" d="M173.59,102.02c.76,1.34,1.08,2.78.98,4.3,0,.06.03.08.08.06l.06-.02s.03-.02.03-.03c.16-1.57-.16-3.03-.98-4.37-.03-.04-.09-.05-.12-.03l-.03.03s-.03.03-.02.06h0Z"/>
        <path class="cls-1" d="M173.6,106.51l.65-.05c.06,0,.09-.03.09-.09.12-1.26-.08-3.13-.98-4.11-.2-.22-.41-.22-.62-.02l-.23.22c-.2.19-.2.38,0,.58.86.87,1.19,1.99,1,3.37,0,.07.02.1.09.09h0Z"/>
        <path class="cls-1" d="M188.4,104.4c.09-.72.37-1.45.83-2.2.03-.05.02-.09-.04-.1l-.05-.02s-.06,0-.08.03c-.69,1.23-.95,2.59-.94,4.09,0,.03.02.04.04.04h.08s.06-.03.06-.08c0-.63.03-1.23.1-1.76h0Z"/>
        <path class="cls-1" d="M189.35,102.49c-.75,1.05-.86,2.4-.86,3.68,0,.1.05.16.15.17l.53.03c.09,0,.16-.07.16-.15-.03-1.14.09-2.23,1.02-3,.2-.17.2-.33,0-.49l-.41-.31c-.23-.18-.43-.14-.6.09h0Z"/>
        <path class="cls-1" d="M187.63,102.46c-.45,1.04-.67,2.41-.67,3.46v.02s0,.02.03.03c.02.01.03.01.03,0,.08-.97.19-1.74.34-2.29.11-.41.21-.81.32-1.21.03-.09.02-.09-.02,0h-.03ZM175.5,102.81h-.09s-.03.03-.03.04v.03c.26,1.82.5,3.29.54,3.29h0s-.14-1.49-.41-3.31v-.03s-.02-.03-.03-.03h.02Z"/>
        <path class="cls-1" d="M158.73,118.48c3.77-.55,7.69-.89,11.75-.99,7.24-.19,14.3-.11,21.17.23,3.69.19,7.36.5,11.01.96"/>
        <path class="cls-1" d="M202.67,118.69l1.17.15c.06,0,.09-.02.09-.08-.08-1.13-.15-2.32-.25-3.58-.09-1.18-.4-2.68-1.19-3.56-1.22-1.34-3.38-2.09-5.18-2.56-3.09-.81-6.15-1.29-9.18-1.46-4-.21-7.77-.2-11.3.03-4.22.28-8.65.58-12.56,1.68-1.38.38-2.57.94-3.57,1.66-1.36.98-1.97,2.52-2.23,4.15-.18,1.12-.31,2.27-.38,3.45,0,.04.03.07.08.06l.6-.15"/>
        <path class="cls-1" d="M202.67,118.69c.08-2.72.21-6.71-2.72-8.17-.71-.36-1.44-.62-2.19-.81-2.4-.6-4.87-1-7.42-1.19"/>
        <path class="cls-1" d="M190.34,108.5c-1.06-.2-2.3-.33-3.69-.42-4.64-.28-9.13-.26-13.47.08"/>
        <path class="cls-1" d="M173.18,108.17c-.44,0-1.3.08-2.56.2-2.66.26-5,.74-6.99,1.45-1.23.43-2.2.97-2.9,1.61-.77.71-1.29,1.52-1.52,2.43-.35,1.34-.51,2.89-.48,4.63"/>
        <path class="cls-1" d="M190.34,108.5c-1.62-.03-3.22-.1-4.81-.2-1.44-.09-2.58-.14-3.41-.14-2.43-.03-5.03.03-7.83.15-.55.03-.92.03-1.1,0-.03,0-.06-.02-.09-.03-.04-.03-.04-.04,0-.05.03,0,.06-.03.08-.05"/>
        <path class="cls-1" d="M162.56,120.48c-1.69.17-3.35.43-5,.77-.09.02-.17.07-.23.15-.03.03-.03.07-.03.1,0,.09.09.14.17.12,1.71-.43,3.46-.74,5.22-.89"/>
        <path class="cls-1" d="M162.69,120.73c3.09-.26,5.52-.43,7.27-.48,3.18-.1,7.11-.14,11.81-.13,2.35,0,4.84.09,7.21.16.17,0,.17,0,0-.05-.21-.05-.54-.09-.97-.1-5.64-.28-11.5-.33-17.56-.17-2.46.07-5.09.24-7.9.53"/>
        <path class="cls-1" d="M162.69,120.73c-.03-.08-.07-.16-.14-.25"/>
        <path class="cls-1" d="M159.24,121.52l-1.77.43c-.05.02-.09.06-.09.11.2,4.62.41,8.67.6,12.16.33,6.1.85,12.19,1.57,18.26.62,5.3,1.56,11.41,2.82,18.34.81,4.47,1.61,8.94,2.39,13.41"/>
        <path class="cls-1" d="M164.74,184.23l.49,2.81s.03.06.07.05c3.96-.54,8.04-.79,11.97-.94.06,0,.11-.05.11-.11.03-.83-.07-1.53.52-2.2.81-.94,1.1-1.82,1.04-3.12-.77-16.54-1.58-33.41-2.26-50.17-.04-1,.04-1.93.81-2.62"/>
        <path class="cls-1" d="M177.49,127.91c1.25-1.02,2.73-1.49,4.45-1.4,1.26.06,2.25.5,2.95,1.33"/>
        <line class="cls-1" x1="184.89" y1="127.84" x2="185.28" y2="128.7"/>
        <path class="cls-1" d="M185.28,128.7l-.11,1.76c-.02.26-.08.26-.18.03-.78-1.74-2.26-2.1-4-2.03-1.13.05-2.43.29-2.82,1.51,0,.02,0,.03.02.04l.04.02s.02,0,.03,0c.21-.64.66-1.04,1.34-1.21,1.29-.31,4.39-.41,4.79,1.38.05.23.08.44.08.64-.04,5.4-.15,11.07-.33,17.02-.03.95-.04,2.09-.03,3.41,0,2.36,0,3.56-.06,3.62-.03.03-.04.07-.04.11.04,1.92-.03,3.73-.02,5.56"/>
        <path class="cls-1" d="M183.98,160.56c-.21,6.61-.46,13.21-.74,19.81-.06,1.43.56,2.22,1.47,3.16.68.71.54,1.63.38,2.51-.02.09.02.14.11.14l6.24.31"/>
        <line class="cls-1" x1="191.44" y1="186.5" x2="196.32" y2="186.95"/>
        <path class="cls-1" d="M196.32,186.95l.96.14s.06-.02.07-.05c.43-2.85.89-5.75,1.34-8.71.02-.13.03-.26.03-.37,0-.05-.03-.1-.06-.14-.75-.68-.68-1.77-.6-2.71.06-.69.14-1.16.22-1.4.28-.81,1.11-1.19,1.81-1.63.07-.04.11-.1.12-.18,1.79-11.59,3.17-23.07,3.79-34.65,0-.06-.03-.09-.09-.11-.65-.13-1.57-.33-1.89-.95"/>
        <path class="cls-1" d="M202.04,136.22c-.07-.17-.09-.27-.09-.32,0-1.9.1-3.64.3-5.22.06-.52.25-.96.56-1.34"/>
        <path class="cls-1" d="M202.79,129.34c.59-.43,1.2-.62,1.83-.54.03,0,.07-.03.08-.06l.53-6.51c0-.05-.02-.09-.08-.09l-1.15-.25"/>
        <line class="cls-1" x1="204" y1="121.89" x2="203.38" y2="121.74"/>
        <path class="cls-1" d="M203.38,121.74c-3.35-.64-6.76-1.01-10.21-1.12-5.98-.18-11.96-.24-17.94-.18-2.89.03-5.79.13-8.68.28-2.47.14-4.9.4-7.3.78"/>
        <line class="cls-1" x1="203.38" y1="121.74" x2="203.19" y2="122.63"/>
        <line class="cls-1" x1="203.19" y1="122.63" x2="202.81" y2="127.46"/>
        <path class="cls-1" d="M202.81,127.46c-.23-.15-.54-.22-.93-.22"/>
        <path class="cls-1" d="M201.88,127.24l-16.99.6M177.49,127.91l-17.74-.37"/>
        <line class="cls-1" x1="159.75" y1="127.55" x2="159.24" y2="121.52"/>
        <path class="cls-1" d="M159.75,127.55c0,.73.02,1.47.07,2.2.09,1.42.18,2.68.24,3.78.07,1.14.14,2.25.23,3.31.21,2.62.31,5.43.55,7.78.09.93.19,1.91.26,2.93.14,1.86.33,4.21.6,7.04.26,2.79.64,5.61.89,8.55.04.54.21,1.79.5,3.75.12.78.18,2.04.19,3.78,0,.35-.04.69-.13,1.04-.13.52-.14,1.02-.06,1.52.24,1.31.53,2.57.86,3.78.1.37.18.77.21,1.18.04.49.09.96.14,1.43.04.42.25.77.26,1.2.02.71.17,1.41.29,2.11.07.43,0,.86-.09,1.29"/>
        <path class="cls-1" d="M204,121.89c.1.2.14.33.14.43,0,.2-.15.34-.33.34l-.62-.02"/>
        <path class="cls-1" d="M202.79,129.34l.02-1.88M202.04,136.22c-.09.03-.14.08-.14.14-.38,7.4-1.04,14.3-1.78,21.43-.36,3.46-.81,7.18-1.36,11.17-.2,1.39-.27,2.74-.6,4.11-.14.61-.26,1.22-.33,1.8-.19,1.46-.38,2.96-.58,4.52-.31,2.42-.58,4.8-.8,7.15,0,.09-.05.15-.13.21-.06.04-.07.09-.03.14l.05.08M201.88,127.24c-.08.72-.24,1.89-.49,3.51-.33,2.18-.65,5.06-.94,8.64-.1,1.21-.22,2.34-.37,3.4-.45,3.37-.89,6.03-1.33,7.98-2.15,9.67-3.63,16.63-4.42,20.89-.84,4.55-1.69,8.57-2.52,12.09-.17.71-.3,1.62-.38,2.75"/>
        <path class="cls-1" d="M183.98,160.56c.14-1.05.2-2.1.2-3.16,0-.14,0-.29.02-.43.02-.18.03-.32.03-.43.03-1.95.1-3.81.22-5.58.1-1.52.17-2.66.2-3.41.2-5.02.41-10.04.6-15.07,0-.06.05-.6.15-1.62.08-.74.03-1.46-.13-2.15"/>
        <path class="cls-1" d="M199.99,120.8c1.8.2,3.61.49,5.42.88.06,0,.09,0,.09-.07,0-.09-.03-.16-.12-.19-.52-.14-1.02-.26-1.52-.31-1.78-.21-3.52-.37-5.2-.51-.02,0-.03,0-.03.03h0s0,.03.03.04c.43.03.87.08,1.33.13h-.02,0Z"/>
        <path class="cls-1" d="M148.64,122.32c.09.49.37.87.84,1.15.93.55,2.1,1.03,2.83,1.9.49.6.85,1.42,1.23,2.15.2.39.52.5.94.34"/>
        <path class="cls-1" d="M154.5,127.87c.68-.11,1.34-.31,1.99-.6.06-.03.09-.07.09-.14l-.24-4.89c0-.06-.03-.09-.09-.11-.37-.08-.75-.11-1.16-.11-1.67,0-3.72.06-6.15.14-.14,0-.23.06-.29.16"/>
        <path class="cls-1" d="M154.5,127.87c-.08-.06-.15-.12-.23-.17-.08-.06-.14-.14-.19-.22-.31-.65-.67-1.29-1.08-1.93-.73-1.14-1.62-1.57-2.74-2.14-.26-.13-.54-.32-.86-.57-.24-.2-.49-.37-.76-.51"/>
        <path class="cls-1" d="M203.99,129.97l-.3,4.75c0,.13.09.25.22.26,1.7.13,3.36.2,4.97.2,1.12,0,2.27-.09,3.33.09,1.52.26,1.91,1.54,1.94,2.96.16,6.98.21,14.35.15,22.13,0,1.59.03,3.49-.17,4.87-.08.54-.36,1.22-.85,2.04"/>
        <path class="cls-1" d="M213.28,167.28c-.71.85-1.53,1.57-2.49,2.15-1.19.73-2.43,1.33-3.73,1.8-2.44.88-4.92,1.69-7.26,2.86-.43.22-.66.34-.69.9-.03.53-.03,1.06,0,1.57"/>
        <path class="cls-1" d="M199.13,176.57c.05.14.17.2.35.2,3.77-.03,7.35-.65,10.75-1.88,2.81-1.01,5.92-2.73,7.43-5.42.7-1.24,1.06-2.63,1.08-4.16"/>
        <path class="cls-1" d="M218.74,165.31c.07-1.07.12-2.18.15-3.33.15-4.96.31-9.93.49-14.89.13-3.57.2-6.61.2-9.11,0-1.91-.53-3.69-1.62-5.33"/>
        <path class="cls-1" d="M217.96,132.65c1.73,2.13,1.92,4.37,1.88,6.91-.1,7.32-.2,14.55-.31,21.69-.03,1.47-.08,2.93-.16,4.37-.11,1.92-.66,3.85-1.97,5.29-.02.02-.02.03,0,.05h.03c1.41-1.52,2.24-3.29,2.47-5.34.17-1.52.29-3.5.36-5.96.19-6.84.31-12.6.39-17.28.04-2.54.02-4.32-.07-5.35-.2-2.4-1.32-4.18-3.35-5.33"/>
        <line class="cls-1" x1="217.25" y1="131.72" x2="216.07" y2="131.2"/>
        <path class="cls-1" d="M216.07,131.2c-1.25-.53-2.56-.9-3.92-1.12"/>
        <path class="cls-1" d="M212.15,130.08c-2.6-.27-5.22-.45-7.85-.54-.19,0-.29.14-.31.43"/>
        <path class="cls-1" d="M212.15,130.08c0,.07,0,.13-.07.17-.04.03-.09.05-.14.04-1.29-.05-2.56-.12-3.84-.2-.68-.04-1.37-.07-2.05-.09-.67,0-1.36-.03-2.06-.04"/>
        <path class="cls-1" d="M216.07,131.2c.37.41.81.69,1.31.85"/>
        <path class="cls-1" d="M217.38,132.05c.31.14.51.34.59.6"/>
        <path class="cls-1" d="M218.74,165.31c-.13.4-.25.79-.33,1.17-.1.45-.21.86-.34,1.23-.88,2.57-3.28,4.21-5.72,5.32-2.33,1.06-4.77,1.79-7.18,2.37-1.76.42-3.69.79-5.75,1.14"/>
        <path class="cls-1" d="M199.41,176.53v-1.5c0-.18.09-.3.25-.37,1.53-.6,3.1-1.14,4.7-1.64,2.05-.64,3.82-1.39,5.52-2.35,1.51-.85,2.64-1.97,3.4-3.38"/>
        <path class="cls-1" d="M199.13,176.57c.13-.04.22-.06.28-.04"/>
        <path class="cls-1" d="M217.25,131.72c-.2,0-.16.1.14.34"/>
        <path class="cls-1" d="M201.21,171.6s.02.04.04.03c1.66-.62,3.41-1.29,5.25-2.03,1.54-.61,2.87-1.34,3.98-2.19,1.12-.85,1.69-2.07,1.72-3.63.14-8.96.11-17.46-.11-25.46-.02-.65-.59-.75-1.1-.78-2.11-.11-4.12-.2-6.03-.25-.04,0-.06.02-.06.06-.57,11.47-1.88,22.87-3.69,34.25h0Z"/>
        <path class="cls-1" d="M181.11,140.23s-.03-.05-.05-.05h0s-.05.03-.05.06l.1,9.57s.03.05.05.05h0s.05-.03.05-.06l-.1-9.57h0Z"/>
        <path class="cls-1" d="M180.99,160.49c-.03,6.19-.09,12.38-.17,18.56-.03,1.76.07,3.12-1.4,4.37-.09.08-.08.1.03.09.63-.09,1.34-.14,2.14-.15,1.29,0,2.57.32,3,1.65.07.2.12.2.15,0,.07-.41-.05-.76-.35-1.03-.37-.35-.77-.67-1.18-.98-1.14-.83-1.42-1.9-1.48-3.22-.26-6.24-.5-12.67-.71-19.28,0,0,0-.02-.02-.02h0s-.02,0-.02.02h0Z"/>
        <path class="cls-1" d="M166.27,201.27c10.46.02,20.95.09,31.45.22,2,.03,3.99.07,5.97.14.08,0,.09-.02.03-.07-1.35-1.25-1.52-3.04-1.75-4.89-.09-.82-.21-1.59-.35-2.32"/>
        <path class="cls-1" d="M201.62,194.35c-.03-.31-.1-.83-.23-1.57-.14-.82-.6-1.27-1.38-1.35-.77-.09-1.4-.14-1.86-.15-10.16-.37-20.3-.45-30.39-.26-1.76.03-3.49.03-5.28.18-1.4.11-2.14.72-2.24,2.22-.13,1.97-.19,3.78-.66,5.78-.2.87-.65,1.82-1.46,2.2-.09.04-.09.06.02.06l8.14-.19"/>
        <path class="cls-1" d="M201.62,194.35c-.11-.14-.2-.31-.23-.53-.04-.25-.1-.42-.17-.52-.54-.73-1.85-1.17-2.73-1.29-.89-.11-1.9-.19-3-.22-5.44-.16-10.59-.17-15.47-.03-2.32.07-4.49.17-6.52.3-2.09.13-4.08.35-5.97.66-2.07.34-3.87.94-4.84,2.95-.83,1.7-1.17,3.34-1.66,5.06-.03.1.05.21.15.2,1.73,0,3.41.11,5.06.35"/>
        <path class="cls-1" d="M145.39,217.77c-.14,1.12-.24,2.49-.31,4.09-.2,4.47-.49,10.61-.87,18.4-.03.46-.04.91-.06,1.34,0,.03,0,.03.03.04h.02s.06-.03.08-.06c.08-.21.13-.37.14-.49.23-2.17.39-3.58.48-4.21.7-4.91,1.4-9.73,2.12-14.45.35-2.32.81-4.83,1.66-7.03,1.42-3.71,4.66-4.94,8.36-5.29,2.08-.2,4.04-.32,5.91-.37,9.6-.24,20.48-.29,32.64-.14,2.78.03,5.46.14,8.04.35,1.49.12,2.98.31,4.47.6,2.49.47,4.79,1.58,5.92,4,.6,1.29,1.05,2.74,1.34,4.38.38,2.09.69,4.09.92,6.01.39,3.34.78,6.57,1.17,9.71.03.22.03.21.03,0-.1-4.53-.29-9.17-.58-13.9-.17-2.89-.36-5.75-.76-8.64-.1-.72-.25-1.43-.43-2.12"/>
        <path class="cls-1" d="M215.71,209.96c-.58-2.74-2.19-4.51-4.83-5.32-1.24-.38-2.48-.63-3.7-.75-2.72-.26-5.44-.42-8.17-.47-11.37-.22-22.78-.32-34.22-.32-2.53,0-5.07.09-7.57.25-3.32.2-8,.84-9.9,3.94-.62,1-1.05,2.21-1.28,3.63-.37,2.23-.59,4.52-.65,6.87"/>
        <path class="cls-1" d="M215.71,209.96c-.06.13-.11.13-.14,0-.12-.34-.24-.58-.37-.71-2.6-2.66-5.77-3.42-9.38-3.69-3.23-.24-6.39-.18-9.72-.2-1.13,0-2.27,0-3.42.02-7.3.12-14.48.22-21.54.31-3.46.04-6.89.14-10.31.3-1.46.07-2.98.2-4.57.41-1.72.22-3.22.61-4.51,1.18-2.25.99-3.9,2.6-4.98,4.84h0l.04.03s.06.02.09-.02c2.6-3.82,6.99-5.02,11.46-5.48,2.63-.27,5.43-.41,8.21-.48,11.19-.3,21.95-.32,33.02-.25,1.63,0,3.39.09,5.29.23,2.12.15,4,.51,5.65,1.06.69.23,3.01,1.18,3.07,1.95,0,.09-.07.18-.16.17-2.25-.14-4.45-.37-6.73-.49-3.8-.19-7.66-.2-11.26-.21-11.05-.04-21.89-.1-32.51-.18-2.91-.03-5.88.12-8.75.74-3.41.73-6.41,2.49-7.82,5.81-.44,1.05-.76,1.86-.94,2.44"/>
        <path class="cls-1" d="M152.57,237.01c.14,2.97,1.97,3.99,4.65,4.32,1.31.16,2.61.27,3.91.33,6.81.3,14,.48,21.59.52,5.99.03,12.04-.14,18.22-.37,1.49-.05,2.89-.16,4.19-.32,2.51-.31,4.12-1.35,4.46-3.98.27-2.08.42-4.28.44-6.63.04-4.41.03-8.83-.35-12.98-.17-1.8-.54-4.18-2.5-4.91-.68-.26-1.38-.43-2.1-.53-2.35-.32-4.73-.54-7.16-.64-10.6-.45-21.44-.53-32.53-.25-3.46.09-6.76.14-9.91,1.17-1.18.39-1.99,1.02-2.4,2.24-.56,1.68-.61,3.52-.66,5.36-.15,5.75-.1,11.29.15,16.64h0v.02h0Z"/>
        <line class="cls-1" x1="143.63" y1="244" x2="143.61" y2="244.53"/>
        <path class="cls-1" d="M143.61,244.53c-.03.59.14,1.11.74,1.16,1.17.11,2.5.19,3.98.22,2.11.04,6.84.07,14.16.07"/>
        <path class="cls-1" d="M162.48,245.98c17.15.06,34.3.04,51.45-.06,1.63,0,2.66-.06,3.08-.14.7-.14,1.12-.59,1.27-1.34.11-.55.14-1.01.07-1.36"/>
        <path class="cls-1" d="M218.35,243.08c0-.09,0-.16-.03-.21-.03-.05-.09-.08-.17-.09h-.23c-5.31-.03-10.26.02-14.84.16-8.38.26-16.64.37-24.8.36-6.91,0-13.82-.47-20.76-.54-4.21-.04-8.43-.08-12.65-.1h-.97c-.06,0-.09.03-.1.09l-.17,1.26"/>
        <path class="cls-1" d="M218.35,243.08c-.04.09-.13.09-.25,0-.05-.03-.1-.03-.15,0-.22.14-.42.25-.7.26-1.3.03-2.6.09-3.88.15-1.39.08-2.84.04-4.26.07-8.24.12-16.68.28-25.33.47-6.43.14-12.7.21-16.98.18-7.48-.05-14.71-.13-21.69-.21h-1.48M162.48,245.98l.13-.03c.09-.02.09-.04,0-.07-.04-.02-.08-.03-.12-.03-2.78-.14-5.61-.21-8.37-.38-2.41-.14-4.02-.26-4.83-.35-1.06-.11-2.17-.2-3.35-.28-.46-.03-.84-.07-1.17-.12-.38-.06-.77-.12-1.17-.19"/>
        <path class="cls-1" d="M185.26,108.59c-.61-.07-1.25-.1-1.92-.11-2.22-.03-4.28.03-6.18.17-1.11.08-2.24.18-3.38.29-3.09.31-6.07.76-8.9,1.81-1.44.54-3.33,1.56-3.88,3.04-.41,1.1-.63,2.24-.65,3.41,0,.03,0,.04.03.04h0c.14-.89.38-1.75.75-2.55.76-1.69,2.71-2.85,4.38-3.43,1.46-.5,2.67-.83,3.64-1,7.41-1.26,14.94-1.34,22.58-.21.95.14,1.91.37,2.84.56,1.42.31,2.93.77,4.5,1.38.02,0,.03,0,.03-.02l.02-.04s0-.04-.02-.05c-2.68-1.22-5.33-2.06-7.92-2.52-1.35-.24-2.76-.45-4.21-.65-.57-.08-1.17-.07-1.75-.13h.02Z"/>
        <path class="cls-1" d="M160.52,123.69c-.26.11-.25.14.03.08,1.91-.42,3.8-.66,5.7-.76,9.85-.46,19.5-.37,29.6.02,1.84.07,3.69.38,5.52.94.11.03.14,0,.06-.09-1.27-1.67-3.42-1.81-5.44-1.93-3.21-.19-6.35-.32-9.42-.41-6.97-.2-13.73.05-20.29.73-2.11.22-3.92.6-5.75,1.4h0v.02h0Z"/>
        <path class="cls-1" d="M202.43,121.99h-.24s-.03,0-.03.03l-.02.56c-.05,1.55-.04,2.81.03,2.81h.03c.08,0,.18-1.25.23-2.8l.02-.56s-.02-.03-.03-.03h0Z"/>
        <path class="cls-1" d="M184.62,124.85h0s0,.03.03.03c.14,0,.3.02.45.03,2.89.13,6,.25,9.33.35,1.47.05,3.04.14,4.69.26.03,0,.03,0,.04-.03h0s0-.04-.03-.05c-1.86-.26-3.82-.43-5.87-.51-2.87-.11-5.74-.14-8.61-.09h0s0,0,0,0h0ZM162.52,125.85c4.58-.26,9.6-.56,15.07-.89,0,0,.02,0,.02,0v-.02h-.02c-4.74-.11-9.42.12-14.05.71-.35.04-.69.1-1.02.18-.13.03-.13.03,0,.03h0Z"/>
        <path class="cls-1" d="M197.58,143.93c.03.06.07.09.09.09s.05-.02.07-.07c.2-.6.35-1.23.46-1.9.18-1.05.35-2.07.5-3.05.08-.49.29-.92.33-1.42.09-1.05.41-2.23.55-3.13.04-.29.05-.6,0-.95"/>
        <path class="cls-1" d="M199.61,133.51c.09-.42.1-.82.02-1.2-.09-.41-.43-.6-.82-.54-.69.12-1.22.53-1.58,1.23-.3.58-.92.78-1.4,1.15-.39.29-.67.63-.86,1.02-.1.22-.17.61-.2,1.17-.67,11.7-1.18,19.88-1.52,24.58-.56,7.56-1.1,14.78-1.63,21.65-.02.27-.03.54-.02.82h0c.41-2.61.82-5.19,1.3-7.89.55-3.06,1.06-6.14,1.52-9.23,1.12-7.43,2.17-14.87,3.16-22.32"/>
        <path class="cls-1" d="M199.61,133.51c-.14-.14-.29-.21-.43-.22-.06,0-.09.02-.1.08l-1.5,10.56"/>
        <path class="cls-1" d="M169.32,157.94c.05-.08.07-.22.06-.41-.13-3.79-.28-7.19-.46-10.21-.22-3.75-.35-7.48-.5-11.32-.02-.44-.02-.73-.38-1.05-.36-.31-.95-.79-1.79-1.44-.48-.37-.94-.55-1.38-.56"/>
        <path class="cls-1" d="M164.86,132.97c0-.26-.06-.46-.16-.6-.12-.17-.31-.26-.57-.29-.54-.04-1.01.15-1.42.58-.24.25-.3.59-.2,1.02.02.06.05.09.12.08.13-.03.25-.07.36-.14.08-.05.18,0,.19.09.02.18.04.35.07.51,1.46,8.63,2.75,16.53,3.88,23.69,1.06,6.72,2.01,12.49,2.82,17.29.19,1.11.34,2.15.45,3.1.24,1.99.53,4.19.88,6.58,0,.02.02.03.03.04.04,0,.06,0,.06-.04,0-.57-.03-1.2-.07-1.88-.61-8.35-1.28-16.69-1.98-25.03"/>
        <path class="cls-1" d="M164.86,132.97c.55.53,1.08,1.04,1.6,1.53.55.53.86,1.17.93,1.93.23,2.51.45,5.01.66,7.52.4,4.66.82,9.32,1.27,13.99"/>
        <path class="cls-1" d="M177.29,192.64c-2.93.06-6.15.29-9.18.69-2.02.26-3.79.76-4.8,2.59-.5.92-.92,2.06-1.26,3.44,0,.02,0,.03.03.04l.04.02h.02c.31-.81.66-1.63,1.06-2.45.94-1.95,2.49-3.06,4.66-3.32,3.02-.37,6.05-.4,9.13-.41,4.89-.02,9.87-.02,14.93,0,.31,0,.63,0,.94-.02.97-.04.97-.1,0-.18-2.89-.23-6.15-.38-9.81-.47-1.83-.04-3.8.04-5.77.09h0l.02-.02h0Z"/>
        <path class="cls-1" d="M170.06,232.06c1.34,2.9,3.51,4.91,6.5,6.05,2.66,1.01,5.39,1.17,8.17.48,3.13-.77,5.6-2.74,7.35-5.5.11-.18.31-.29.52-.3,3.31-.18,6.66-.3,9.93-.77,1.18-.17,3.56-.62,4.09-1.86.87-2.03.87-5.04-2.08-5.2-3.17-.19-6.36-.3-9.55-.35-.89,0-1.57-.42-2.07-1.21-.55-.89-1-1.87-1.61-2.71-1.51-2.05-3.46-3.47-5.85-4.27-3.45-1.15-7.36-.87-10.54.99-2.35,1.37-4.55,3.92-5.02,6.72-.07.42-.32.63-.76.64-4.41.09-8.31.21-11.68.37-1.52.07-3.17,1.62-2.21,3.18.2.32.41.64.51,1,.33,1.2.8,1.66,2.04,1.86,1.03.16,2.11.28,3.25.35,2.43.15,4.97.26,7.61.33.37,0,.77.03,1.18.06.09,0,.15.06.19.14h0Z"/>
        <path class="cls-1" d="M168.97,225.49c-3.79.08-7.58.15-11.36.22-.6,0-1.08.19-1.43.53-.44.43-.6.94-.45,1.53"/>
        <path class="cls-1" d="M155.73,227.78c.07.3.16.53.28.69.05.08.12.11.21.11,6.09-.11,12.21-.13,18.35-.05.03,0,.06-.02.07-.04.1-.18.16-.37.17-.6.11-2.43,1.12-4.29,3.01-5.56,1.9-1.28,4.59-1.28,6.59-.24,2.48,1.29,3.35,3.28,3.35,6.02,0,.08.04.12.12.12,5.43.09,10.9,0,16.22,0,.65,0,1.04-.31,1.17-.9"/>
        <path class="cls-1" d="M205.26,227.33c.26-1.36-.85-1.67-1.96-1.69-2.76-.04-5.68-.09-8.78-.12-.98,0-2.03-.38-2.53-1.29-.27-.49-.5-1.01-.7-1.55"/>
        <path class="cls-1" d="M191.32,222.68c-.51-1.03-1.26-2.03-2.26-3.01-1.95-1.92-4.23-2.96-6.84-3.13-3.07-.2-5.73.6-7.97,2.39-1.93,1.54-3.13,3.36-3.6,5.46-.2.89-.87,1.06-1.69,1.11"/>
        <line class="cls-1" x1="191.32" y1="222.68" x2="191.22" y2="222.73"/>
        <path class="cls-1" d="M191.22,222.73c-.42-.72-.92-1.39-1.51-1.98"/>
        <path class="cls-1" d="M189.71,220.75c-.19-.24-.42-.44-.7-.61-1.03-.63-2-1.18-2.91-1.68-1.8-.97-4.44-1.01-6.4-.71-1.49.23-3.33,1-4.58,2.04-.76.63-1.34,1.2-1.75,1.71-.56.71-1.18,1.61-1.86,2.72-.4.65-.84,1.33-1.61,1.61-.05.02-.1.02-.14,0l-.77-.32"/>
        <path class="cls-1" d="M189.71,220.75c.39.76.89,1.44,1.47,2.05.03.03.04.03.06,0s0-.05-.03-.06"/>
        <path class="cls-1" d="M205.26,227.33c-4.2.13-8.41.2-12.63.2-1.12,0-2.24-.03-3.34-.1-.1,0-.2-.09-.2-.2-.03-.56-.1-1.07-.21-1.54-.26-1.14-.91-2.44-1.82-3.33-2.05-1.97-4.43-2.76-7.12-2.35-1.34.2-2.52.77-3.57,1.68-1.78,1.57-2.61,3.51-2.49,5.83,0,.09-.07.16-.16.16-5.37-.09-10.76-.1-16.16-.03-.72,0-1.34.04-1.85.11"/>
        <path class="cls-1" d="M180.13,221.86c-1.13.23-2.08.76-2.84,1.59"/>
        <path class="cls-1" d="M177.29,223.46c-.43.36-.78.8-1.06,1.33-.49.92-.72,1.92-.66,2.96,0,.09.03.16.09.2.05.04.12.08.21.1"/>
        <path class="cls-1" d="M175.86,228.06c.39,2.35,2.3,3.99,4.61,4.26"/>
        <path class="cls-1" d="M180.47,232.32c.91.09,1.77,0,2.56-.26"/>
        <path class="cls-1" d="M183.03,232.05c1.97-.6,3.42-1.96,3.79-3.97.7-3.86-2.89-7.07-6.69-6.21"/>
        <path class="cls-1" d="M183.03,232.05c.31-.17.61-.34.9-.51.33-.2.6-.4.82-.61,1.15-1.14,1.86-2.64,1.75-4.26-.02-.27-.11-.54-.28-.78"/>
        <path class="cls-1" d="M186.22,225.88c-.49-1.56-1.45-2.67-2.88-3.37-.45-.22-.94-.34-1.42-.49-.28-.09-.57-.13-.88-.14-.31,0-.61-.02-.92-.03"/>
        <path class="cls-1" d="M186.22,225.88c.02.08.02.15,0,.23-.03.07-.12.07-.15,0-.7-1.63-1.79-2.78-3.54-3.31-2.15-.66-4.43.19-5.45,2.18-1.06,2.07-.81,3.97.74,5.68.73.81,1.68,1.29,2.82,1.44.07,0,.09.04.05.1-.03.04-.09.09-.2.12"/>
        <path class="cls-1" d="M175.86,228.06c-.1-1.68.37-3.21,1.43-4.61"/>
        <path class="cls-1" d="M205.25,225.86c.44.38.75.85.89,1.41,0,.03.03.04.05.03h.04v-.03c-.08-.64-.39-1.14-.94-1.5h-.03l-.03.03v.04h.02Z"/>
        <path class="cls-1" d="M175.33,229.21c-.02.23.03.45.14.68.47.94,1.08,1.71,1.83,2.31.08.06.09.05.03-.03-.1-.14-.22-.27-.35-.37-.29-.21-.49-.63-.72-.91-.38-.48-.66-1.12-.86-1.69-.04-.13-.08-.12-.09,0h0v.02ZM171.51,231.93c-.17-.04-.38-.04-.64,0-.06,0-.07.04-.04.09.91,1.8,2.24,3.22,3.97,4.24.34.2.71.36,1.12.46"/>
        <path class="cls-1" d="M175.91,236.73c.8.43,1.63.74,2.49.93"/>
        <path class="cls-1" d="M178.4,237.66c1.8.56,3.62.64,5.46.24,3.34-.72,6.38-2.89,7.95-6.02.03-.06-.02-.13-.08-.13l-.83.02"/>
        <path class="cls-1" d="M190.89,231.77l-2.83.06c-.07,0-.13.03-.17.09-1.46,2.23-3.54,3.35-6.25,3.37-2.9.02-5.13-1.05-6.72-3.19-.06-.09-.15-.13-.26-.14l-3.17-.03"/>
        <path class="cls-1" d="M190.89,231.77c-.74,1.38-1.61,2.49-2.59,3.35-.94.83-1.95,1.44-3,1.83-2.14.8-4.44,1.04-6.91.71M175.91,236.73c-1.96-1.17-3.42-2.77-4.4-4.8"/>
        <path class="cls-1" d="M183.13,219.56l.49.02c.09,0,.16-.07.16-.15v-.09c.02-.32-.14-.6-.36-.6h-.03c-.21,0-.4.25-.41.58v.09c0,.09.06.16.15.17h0ZM179.64,219.79c.24,0,.43-.2.44-.47,0-.26-.19-.49-.42-.49s-.43.2-.44.48c0,.26.19.49.42.49h0ZM187.55,221.55c.23-.09.33-.37.24-.63-.09-.26-.36-.41-.59-.32-.23.09-.33.37-.24.63.09.26.36.41.59.32h0ZM175.53,221.78c.21-.02.37-.24.35-.5-.02-.26-.21-.45-.43-.43s-.37.24-.35.5c.02.26.21.45.43.43h0ZM173.24,224.34c.19.03.37-.13.4-.35.03-.22-.1-.42-.29-.44s-.37.13-.4.35c-.03.22.1.42.29.44h0Z"/>
        <path class="cls-10" d="M212.21,254.63c-.04.17-.08.38-.11.64-.03.25-.15.47-.42.54-.41.1-.8.17-1.17.2-2.17.14-4.28.12-6.32-.09-.31-.03-.61-.11-.89-.23-.12-.05-.2-.14-.22-.27l-.17-.99-.95-4.43s-.02-.03-.04-.03c-14.07-.16-28.16-.22-42.26-.17-.03,0-.04.02-.04.03l-.75,4.51c-.15.59.03,1.4-.82,1.5-2.71.34-5.27.35-7.69.03-.23-.03-.44-.11-.65-.24-.04-.03-.08-.08-.09-.13l-.15-.81-.74-4.5s-.04-.07-.09-.08c-1.63-.15-2.97-.43-4.01-.83-.76-.3-1.28-.8-1.53-1.51-.43-1.18-.57-2.4-.42-3.67.1-.87.24-1.67.27-2.57.37-9.61.8-18.34,1.28-26.18.08-1.25.19-2.54.33-3.86.38-3.55,1.51-7.06,5-8.69,1.86-.87,3.95-1.24,5.94-1.69,1.54-.35,2.52-.94,2.95-2.54.5-1.84.54-3.71.6-5.56,0-.14.05-.43.14-.84.22-1,.74-1.59,1.7-1.91.89-.29,1.84-.44,2.83-.47.06,0,.1-.05.1-.11v-1.84c0-.08.03-.14.09-.18l.17-.12c.05-.03.07-.09.06-.14-.14-.97-.31-1.92-.46-2.83-.86-4.98-1.73-9.92-2.6-14.8-1.34-7.52-2.34-14.47-3-20.86-.67-6.51-1.17-13.14-1.47-19.88,0-.05-.04-.09-.09-.1-.98-.12-1.94-.2-2.89-.23-.39,0-.68-.17-.86-.49-.77-1.35-1.34-2.66-2.75-3.41-.77-.41-1.8-1.03-2.12-1.89-.36-.96.49-1.4,1.28-1.52,1.07-.14,2.11-.28,3.12-.39.65-.07,1.23-.58,1.76-.9.09-.05.09-.08-.03-.09-1.08,0-2.01.15-2.79.5-.1.04-.12.02-.06-.07.47-.66,1.12-1.02,1.96-1.06.84-.04,1.66-.1,2.44-.18.43-.04.86-.16,1.29-.36.06-.03.09-.07.09-.14.06-2.01.17-3.87.67-5.76.44-1.66,1.45-2.89,3.02-3.7,1.52-.78,3.29-1.38,5.34-1.8,2.26-.46,4.53-.75,6.79-.87.06,0,.09-.03.11-.09.17-.99.15-2.43-1-2.82-.46-.15-.7-.46-.72-.92-.05-1.44,1.14-1.96,2.33-2.15,4.39-.74,9.25-.64,13.74-.2,1.64.16,4.32.54,4.25,2.77-.03,1-1.33.55-1.55,1.53-.13.57-.15,1.12-.1,1.64,0,.11.08.18.19.2,3.14.43,6.21.99,9.04,1.96,2.32.8,4.25,1.97,4.91,4.49.51,1.96.6,3.98.67,5.98,0,.07.03.12.11.13.31.08.62.16.93.26.82.27,2.57,1.23,2.37,2.28-.14.74-1.37,1.09-2,1.16-.07,0-.12.06-.12.13l-.38,5.85s.03.09.08.09c2.66.12,5.27.24,7.85.68,1.84.32,3.99.97,5.36,2.25,1.18,1.1,1.91,2.47,2.19,4.1.2,1.12.16,2.32.14,3.52-.12,8.33-.25,17.01-.49,24.84-.03.96-.2,2.05-.51,3.27-.87,3.4-3.04,5.78-6.06,7.45-2.33,1.29-4.83,2.31-7.47,3.06-1.91.54-3.82.77-5.75.53-.43-.05-.84-.15-1.25-.3-.03-.02-.07,0-.08.04l-1.45,9.28c0,.07,0,.12.07.16.51.41.43,1.72.43,2.31,0,.06.05.1.1.1,1.36-.05,3.02.14,3.58,1.63.19.51.32,1.15.4,1.91.09.94.19,1.86.27,2.72.28,2.76.96,5.01,4.12,5.39,2.39.29,4.89,1.09,6.79,2.23,2.37,1.42,2.9,3.44,3.22,5.97.27,2.16.49,4.77.66,7.81.49,8.6.92,17.21,1.28,25.83.06,1.36.14,2.69-.13,3.93-.3,1.41-1.32,1.84-2.59,2.11-1.28.27-2.43.47-3.49.59-.03,0-.07.03-.07.07l-.66,4.31h.05ZM173.59,102.02c.76,1.34,1.08,2.78.98,4.3,0,.06.03.08.08.06l.06-.02s.03-.02.03-.03c.16-1.57-.16-3.03-.98-4.37-.03-.04-.09-.05-.12-.03l-.03.03s-.03.03-.02.06h0ZM173.6,106.51l.65-.05c.06,0,.09-.03.09-.09.12-1.26-.08-3.13-.98-4.11-.2-.22-.41-.22-.62-.02l-.23.22c-.2.19-.2.38,0,.58.86.87,1.19,1.99,1,3.37,0,.07.02.1.09.09h0ZM188.4,104.4c.09-.72.37-1.45.83-2.2.03-.05.02-.09-.04-.1l-.05-.02s-.06,0-.08.03c-.69,1.23-.95,2.59-.94,4.09,0,.03.02.04.04.04h.08s.06-.03.06-.08c0-.63.03-1.23.1-1.76h0ZM189.35,102.49c-.75,1.05-.86,2.4-.86,3.68,0,.1.05.16.15.17l.53.03c.09,0,.16-.07.16-.15-.03-1.14.09-2.23,1.02-3,.2-.17.2-.33,0-.49l-.41-.31c-.23-.18-.43-.14-.6.09h0ZM187.63,102.46c-.45,1.04-.67,2.41-.67,3.46v.02s0,.02.03.03c.02.01.03.01.03,0,.08-.97.19-1.74.34-2.29.11-.41.21-.81.32-1.21.03-.09.02-.09-.02,0h-.03ZM175.5,102.81h-.09s-.03.03-.03.04v.03c.26,1.82.5,3.29.54,3.29h0s-.14-1.49-.41-3.31v-.03s-.02-.03-.03-.03h.02ZM158.73,118.48c3.77-.55,7.69-.89,11.75-.99,7.24-.19,14.3-.11,21.17.23,3.69.19,7.36.5,11.01.96l1.17.15c.06,0,.09-.02.09-.08-.08-1.13-.15-2.32-.25-3.58-.09-1.18-.4-2.68-1.19-3.56-1.22-1.34-3.38-2.09-5.18-2.56-3.09-.81-6.15-1.29-9.18-1.46-4-.21-7.77-.2-11.3.03-4.22.28-8.65.58-12.56,1.68-1.38.38-2.57.94-3.57,1.66-1.36.98-1.97,2.52-2.23,4.15-.18,1.12-.31,2.27-.38,3.45,0,.04.03.07.08.06l.6-.15h-.02ZM162.56,120.48c-1.69.17-3.35.43-5,.77-.09.02-.17.07-.23.15-.03.03-.03.07-.03.1,0,.09.09.14.17.12,1.71-.43,3.46-.74,5.22-.89,3.09-.26,5.52-.43,7.27-.48,3.18-.1,7.11-.14,11.81-.13,2.35,0,4.84.09,7.21.16.17,0,.17,0,0-.05-.21-.05-.54-.09-.97-.1-5.64-.28-11.5-.33-17.56-.17-2.46.07-5.09.24-7.9.53h0ZM159.24,121.52l-1.77.43c-.05.02-.09.06-.09.11.2,4.62.41,8.67.6,12.16.33,6.1.85,12.19,1.57,18.26.62,5.3,1.56,11.41,2.82,18.34.81,4.47,1.61,8.94,2.39,13.41l.49,2.81s.03.06.07.05c3.96-.54,8.04-.79,11.97-.94.06,0,.11-.05.11-.11.03-.83-.07-1.53.52-2.2.81-.94,1.1-1.82,1.04-3.12-.77-16.54-1.58-33.41-2.26-50.17-.04-1,.04-1.93.81-2.62,1.25-1.02,2.73-1.49,4.45-1.4,1.26.06,2.25.5,2.95,1.33l.38.86-.11,1.76c-.02.26-.08.26-.18.03-.78-1.74-2.26-2.1-4-2.03-1.13.05-2.43.29-2.82,1.51,0,.02,0,.03.02.04l.04.02s.02,0,.03,0c.21-.64.66-1.04,1.34-1.21,1.29-.31,4.39-.41,4.79,1.38.05.23.08.44.08.64-.04,5.4-.15,11.07-.33,17.02-.03.95-.04,2.09-.03,3.41,0,2.36,0,3.56-.06,3.62-.03.03-.04.07-.04.11.04,1.92-.03,3.73-.02,5.56-.21,6.61-.46,13.21-.74,19.81-.06,1.43.56,2.22,1.47,3.16.68.71.54,1.63.38,2.51-.02.09.02.14.11.14l6.24.31,4.88.46.96.14s.06-.02.07-.05c.43-2.85.89-5.75,1.34-8.71.02-.13.03-.26.03-.37,0-.05-.03-.1-.06-.14-.75-.68-.68-1.77-.6-2.71.06-.69.14-1.16.22-1.4.28-.81,1.11-1.19,1.81-1.63.07-.04.11-.1.12-.18,1.79-11.59,3.17-23.07,3.79-34.65,0-.06-.03-.09-.09-.11-.65-.13-1.57-.33-1.89-.95-.07-.17-.09-.27-.09-.32,0-1.9.1-3.64.3-5.22.06-.52.25-.96.56-1.34.59-.43,1.2-.62,1.83-.54.03,0,.07-.03.08-.06l.53-6.51c0-.05-.02-.09-.08-.09l-1.15-.25-.62-.14c-3.35-.64-6.76-1.01-10.21-1.12-5.98-.18-11.96-.24-17.94-.18-2.89.03-5.79.13-8.68.28-2.47.14-4.9.4-7.3.78h-.02,0ZM199.99,120.8c1.8.2,3.61.49,5.42.88.06,0,.09,0,.09-.07,0-.09-.03-.16-.12-.19-.52-.14-1.02-.26-1.52-.31-1.78-.21-3.52-.37-5.2-.51-.02,0-.03,0-.03.03h0s0,.03.03.04c.43.03.87.08,1.33.13h-.02,0ZM148.64,122.32c.09.49.37.87.84,1.15.93.55,2.1,1.03,2.83,1.9.49.6.85,1.42,1.23,2.15.2.39.52.5.94.34.68-.11,1.34-.31,1.99-.6.06-.03.09-.07.09-.14l-.24-4.89c0-.06-.03-.09-.09-.11-.37-.08-.75-.11-1.16-.11-1.67,0-3.72.06-6.15.14-.14,0-.23.06-.29.16h0ZM203.99,129.97l-.3,4.75c0,.13.09.25.22.26,1.7.13,3.36.2,4.97.2,1.12,0,2.27-.09,3.33.09,1.52.26,1.91,1.54,1.94,2.96.16,6.98.21,14.35.15,22.13,0,1.59.03,3.49-.17,4.87-.08.54-.36,1.22-.85,2.04-.71.85-1.53,1.57-2.49,2.15-1.19.73-2.43,1.33-3.73,1.8-2.44.88-4.92,1.69-7.26,2.86-.43.22-.66.34-.69.9-.03.53-.03,1.06,0,1.57.05.14.17.2.35.2,3.77-.03,7.35-.65,10.75-1.88,2.81-1.01,5.92-2.73,7.43-5.42.7-1.24,1.06-2.63,1.08-4.16.07-1.07.12-2.18.15-3.33.15-4.96.31-9.93.49-14.89.13-3.57.2-6.61.2-9.11,0-1.91-.53-3.69-1.62-5.33,1.73,2.13,1.92,4.37,1.88,6.91-.1,7.32-.2,14.55-.31,21.69-.03,1.47-.08,2.93-.16,4.37-.11,1.92-.66,3.85-1.97,5.29-.02.02-.02.03,0,.05h.03c1.41-1.52,2.24-3.29,2.47-5.34.17-1.52.29-3.5.36-5.96.19-6.84.31-12.6.39-17.28.04-2.54.02-4.32-.07-5.35-.2-2.4-1.32-4.18-3.35-5.33l-1.17-.52c-1.25-.53-2.56-.9-3.92-1.12-2.6-.27-5.22-.45-7.85-.54-.19,0-.29.14-.31.43h0v.02h0ZM201.21,171.6s.02.04.04.03c1.66-.62,3.41-1.29,5.25-2.03,1.54-.61,2.87-1.34,3.98-2.19,1.12-.85,1.69-2.07,1.72-3.63.14-8.96.11-17.46-.11-25.46-.02-.65-.59-.75-1.1-.78-2.11-.11-4.12-.2-6.03-.25-.04,0-.06.02-.06.06-.57,11.47-1.88,22.87-3.69,34.25h0ZM181.11,140.23s-.03-.05-.05-.05h0s-.05.03-.05.06l.1,9.57s.03.05.05.05h0s.05-.03.05-.06l-.1-9.57h0ZM180.99,160.49c-.03,6.19-.09,12.38-.17,18.56-.03,1.76.07,3.12-1.4,4.37-.09.08-.08.1.03.09.63-.09,1.34-.14,2.14-.15,1.29,0,2.57.32,3,1.65.07.2.12.2.15,0,.07-.41-.05-.76-.35-1.03-.37-.35-.77-.67-1.18-.98-1.14-.83-1.42-1.9-1.48-3.22-.26-6.24-.5-12.67-.71-19.28,0,0,0-.02-.02-.02h0s-.02,0-.02.02h0ZM166.27,201.27c10.46.02,20.95.09,31.45.22,2,.03,3.99.07,5.97.14.08,0,.09-.02.03-.07-1.35-1.25-1.52-3.04-1.75-4.89-.09-.82-.21-1.59-.35-2.32-.03-.31-.1-.83-.23-1.57-.14-.82-.6-1.27-1.38-1.35-.77-.09-1.4-.14-1.86-.15-10.16-.37-20.3-.45-30.39-.26-1.76.03-3.49.03-5.28.18-1.4.11-2.14.72-2.24,2.22-.13,1.97-.19,3.78-.66,5.78-.2.87-.65,1.82-1.46,2.2-.09.04-.09.06.02.06l8.14-.19h0ZM145.39,217.77c-.14,1.12-.24,2.49-.31,4.09-.2,4.47-.49,10.61-.87,18.4-.03.46-.04.91-.06,1.34,0,.03,0,.03.03.04h.02s.06-.03.08-.06c.08-.21.13-.37.14-.49.23-2.17.39-3.58.48-4.21.7-4.91,1.4-9.73,2.12-14.45.35-2.32.81-4.83,1.66-7.03,1.42-3.71,4.66-4.94,8.36-5.29,2.08-.2,4.04-.32,5.91-.37,9.6-.24,20.48-.29,32.64-.14,2.78.03,5.46.14,8.04.35,1.49.12,2.98.31,4.47.6,2.49.47,4.79,1.58,5.92,4,.6,1.29,1.05,2.74,1.34,4.38.38,2.09.69,4.09.92,6.01.39,3.34.78,6.57,1.17,9.71.03.22.03.21.03,0-.1-4.53-.29-9.17-.58-13.9-.17-2.89-.36-5.75-.76-8.64-.1-.72-.25-1.43-.43-2.12-.58-2.74-2.19-4.51-4.83-5.32-1.24-.38-2.48-.63-3.7-.75-2.72-.26-5.44-.42-8.17-.47-11.37-.22-22.78-.32-34.22-.32-2.53,0-5.07.09-7.57.25-3.32.2-8,.84-9.9,3.94-.62,1-1.05,2.21-1.28,3.63-.37,2.23-.59,4.52-.65,6.87h0l-.02-.03h0ZM152.57,237.01c.14,2.97,1.97,3.99,4.65,4.32,1.31.16,2.61.27,3.91.33,6.81.3,14,.48,21.59.52,5.99.03,12.04-.14,18.22-.37,1.49-.05,2.89-.16,4.19-.32,2.51-.31,4.12-1.35,4.46-3.98.27-2.08.42-4.28.44-6.63.04-4.41.03-8.83-.35-12.98-.17-1.8-.54-4.18-2.5-4.91-.68-.26-1.38-.43-2.1-.53-2.35-.32-4.73-.54-7.16-.64-10.6-.45-21.44-.53-32.53-.25-3.46.09-6.76.14-9.91,1.17-1.18.39-1.99,1.02-2.4,2.24-.56,1.68-.61,3.52-.66,5.36-.15,5.75-.1,11.29.15,16.64h0v.02h0ZM143.63,244l-.03.54c-.03.59.14,1.11.74,1.16,1.17.11,2.5.19,3.98.22,2.11.04,6.84.07,14.16.07,17.15.06,34.3.04,51.45-.06,1.63,0,2.66-.06,3.08-.14.7-.14,1.12-.59,1.27-1.34.11-.55.14-1.01.07-1.36,0-.09,0-.16-.03-.21-.03-.05-.09-.08-.17-.09h-.23c-5.31-.03-10.26.02-14.84.16-8.38.26-16.64.37-24.8.36-6.91,0-13.82-.47-20.76-.54-4.21-.04-8.43-.08-12.65-.1h-.97c-.06,0-.09.03-.1.09l-.17,1.26h0Z"/>
        <path class="cls-13" d="M173.59,102.02s0-.04.02-.06l.03-.03s.09-.02.12.03c.82,1.34,1.14,2.79.98,4.37,0,.02,0,.03-.03.03l-.06.02c-.06.02-.09,0-.08-.06.1-1.52-.22-2.95-.98-4.3h0Z"/>
        <path class="cls-4" d="M173.5,106.41c.2-1.39-.14-2.51-1-3.37-.2-.2-.19-.38,0-.58l.23-.22c.21-.2.42-.2.62.02.9.98,1.1,2.85.98,4.11,0,.06-.03.09-.09.09l-.65.05c-.07,0-.1-.03-.09-.09h0Z"/>
        <path class="cls-5" d="M188.4,104.4c-.07.54-.1,1.13-.1,1.76,0,.04-.02.07-.06.07h-.08s-.04,0-.04-.03c0-1.51.26-2.87.94-4.09.02-.03.04-.03.08-.03l.05.02c.06.02.07.05.04.1-.46.75-.73,1.48-.83,2.2h0Z"/>
        <path class="cls-4" d="M188.49,106.16c0-1.28.11-2.62.86-3.68.17-.24.37-.26.6-.09l.41.31c.21.16.21.33,0,.49-.94.77-1.05,1.86-1.02,3,0,.09-.08.16-.16.15l-.53-.03c-.1,0-.15-.06-.15-.17h0Z"/>
        <path class="cls-12" d="M186.95,105.93c0-1.06.22-2.43.67-3.46.03-.09.04-.09.02,0-.1.4-.21.8-.32,1.21-.14.56-.26,1.32-.34,2.29,0,.02,0,.03-.03,0s-.03-.03-.03-.03v-.02h.03Z"/>
        <path class="cls-12" d="M175.5,102.81s.03,0,.03.03v.03c.26,1.82.44,3.3.41,3.3h0s-.27-1.46-.54-3.29v-.03s0-.03.02-.03h.09v-.02Z"/>
        <path class="cls-4" d="M202.67,118.69c.08-2.72.21-6.71-2.72-8.17-.71-.36-1.44-.62-2.19-.81-2.4-.6-4.87-1-7.42-1.19-1.06-.2-2.3-.33-3.69-.42-4.64-.28-9.13-.26-13.47.08-.44,0-1.3.08-2.56.2-2.66.26-5,.74-6.99,1.45-1.23.43-2.2.97-2.9,1.61-.77.71-1.29,1.52-1.52,2.43-.35,1.34-.51,2.89-.48,4.63l-.6.15s-.08-.02-.08-.06c.09-1.17.21-2.32.38-3.45.26-1.63.86-3.18,2.23-4.15,1-.72,2.19-1.27,3.57-1.66,3.92-1.1,8.34-1.4,12.56-1.68,3.53-.24,7.3-.25,11.3-.03,3.03.16,6.09.65,9.18,1.46,1.8.47,3.97,1.23,5.18,2.56.8.88,1.11,2.38,1.19,3.56.09,1.25.17,2.44.25,3.58,0,.06-.03.09-.09.08l-1.17-.15h.02Z"/>
        <path class="cls-10" d="M190.34,108.5c-1.62-.03-3.22-.1-4.81-.2-1.44-.09-2.58-.14-3.41-.14-2.43-.03-5.03.03-7.83.15-.55.03-.92.03-1.1,0-.03,0-.06-.02-.09-.03-.04-.03-.04-.04,0-.05.03,0,.06-.03.08-.05,4.34-.34,8.83-.37,13.47-.08,1.4.09,2.63.22,3.69.42h0Z"/>
        <path class="cls-7" d="M173.18,108.17s-.05.04-.08.05c-.04.02-.05.03,0,.05.03.02.06.03.09.03.19.03.55.03,1.1,0,2.8-.13,5.41-.18,7.83-.15.83,0,1.97.06,3.41.14,1.59.1,3.19.17,4.81.2,2.55.2,5.03.6,7.42,1.19.75.19,1.48.46,2.19.81,2.93,1.46,2.79,5.46,2.72,8.17-3.64-.46-7.32-.78-11.01-.96-6.87-.34-13.93-.42-21.17-.23-4.06.1-7.98.43-11.75.99-.03-1.75.13-3.29.48-4.63.24-.91.74-1.72,1.52-2.43.7-.64,1.67-1.17,2.9-1.61,1.99-.71,4.32-1.19,6.99-1.45,1.26-.12,2.11-.19,2.56-.2h0ZM185.26,108.59c-.61-.07-1.25-.1-1.92-.11-2.22-.03-4.28.03-6.18.17-1.11.08-2.24.18-3.38.29-3.09.31-6.07.76-8.9,1.81-1.44.54-3.33,1.56-3.88,3.04-.41,1.1-.63,2.24-.65,3.41,0,.03,0,.04.03.04h0c.14-.89.38-1.75.75-2.55.76-1.69,2.71-2.85,4.38-3.43,1.46-.5,2.67-.83,3.64-1,7.41-1.26,14.94-1.34,22.58-.21.95.14,1.91.37,2.84.56,1.42.31,2.93.77,4.5,1.38.02,0,.03,0,.03-.02l.02-.04s0-.04-.02-.05c-2.68-1.22-5.33-2.06-7.92-2.52-1.35-.24-2.76-.45-4.21-.65-.57-.08-1.17-.07-1.75-.13h.02Z"/>
        <path class="cls-4" d="M185.26,108.59c.59.07,1.17.06,1.75.13,1.46.2,2.85.41,4.21.65,2.6.46,5.24,1.29,7.92,2.52.03,0,.03.03.02.05l-.02.04s-.02.03-.03.02c-1.58-.61-3.08-1.07-4.5-1.38-.94-.2-1.89-.43-2.84-.56-7.64-1.12-15.17-1.05-22.58.21-.97.17-2.18.5-3.64,1-1.68.58-3.63,1.75-4.38,3.43-.37.81-.61,1.65-.75,2.55h0s-.04,0-.03-.03c.02-1.17.23-2.32.65-3.41.55-1.48,2.44-2.5,3.88-3.04,2.83-1.06,5.81-1.51,8.9-1.81,1.14-.11,2.27-.21,3.38-.29,1.9-.14,3.96-.2,6.18-.17.66,0,1.3.04,1.92.11h-.02Z"/>
        <path class="cls-11" d="M162.69,120.73c-.03-.08-.07-.16-.14-.25,2.81-.29,5.45-.46,7.9-.53,6.07-.16,11.92-.1,17.56.17.43.03.76.06.97.1.16.03.16.05,0,.05-2.37-.07-4.87-.15-7.21-.16-4.7-.02-8.63.03-11.81.13-1.75.06-4.18.22-7.27.48h0Z"/>
        <path class="cls-11" d="M203.38,121.74l-.19.89-.38,4.83c-.23-.15-.54-.22-.93-.22l-16.99.6c-.71-.83-1.69-1.27-2.95-1.33-1.72-.09-3.2.38-4.45,1.4l-17.74-.37-.51-6.03c2.4-.38,4.83-.65,7.3-.78,2.89-.16,5.79-.26,8.68-.28,5.98-.06,11.97,0,17.94.18,3.46.1,6.86.48,10.21,1.12h0ZM160.52,123.69c-.26.11-.25.14.03.08,1.91-.42,3.8-.66,5.7-.76,9.85-.46,19.5-.37,29.6.02,1.84.07,3.69.38,5.52.94.11.03.14,0,.06-.09-1.27-1.67-3.42-1.81-5.44-1.93-3.21-.19-6.35-.32-9.42-.41-6.97-.2-13.73.05-20.29.73-2.11.22-3.92.6-5.75,1.4h0v.02h0ZM202.43,121.99h-.24s-.03,0-.03.03l-.02.56c-.05,1.55-.04,2.81.03,2.81h.03c.08,0,.18-1.25.23-2.8l.02-.56s-.02-.03-.03-.03h0ZM184.62,124.85h0s0,.03.03.03c.14,0,.3.02.45.03,2.89.13,6,.25,9.33.35,1.47.05,3.04.14,4.69.26.03,0,.03,0,.04-.03h0s0-.04-.03-.05c-1.86-.26-3.82-.43-5.87-.51-2.87-.11-5.74-.14-8.61-.09h0s0,0,0,0h0ZM162.52,125.85c4.58-.26,9.6-.56,15.07-.89,0,0,.02,0,.02,0v-.02h-.02c-4.74-.11-9.42.12-14.05.71-.35.04-.69.1-1.02.18-.13.03-.13.03,0,.03h0Z"/>
        <path class="cls-4" d="M162.56,120.48c.07.09.11.17.14.25-1.77.16-3.51.46-5.22.89-.09.03-.16-.03-.17-.12,0-.04,0-.08.03-.1.06-.08.14-.13.23-.15,1.65-.34,3.31-.6,5-.77h0Z"/>
        <path class="cls-5" d="M199.99,120.8c-.46-.05-.9-.09-1.33-.13-.03,0-.03-.02-.03-.04h0s0-.03.03-.03c1.69.13,3.42.3,5.2.51.49.06,1,.16,1.52.31.09.03.13.09.12.19,0,.06-.03.08-.09.07-1.81-.38-3.62-.68-5.42-.88h.02,0Z"/>
        <path class="cls-10" d="M160.52,123.69c1.82-.81,3.64-1.18,5.75-1.4,6.55-.68,13.32-.93,20.29-.73,3.07.09,6.21.22,9.42.41,2.02.12,4.17.26,5.44,1.93.07.09.05.13-.06.09-1.84-.56-3.68-.88-5.52-.94-10.1-.38-19.75-.48-29.6-.02-1.9.09-3.8.34-5.7.76-.27.06-.28.03-.03-.08h0v-.02h0Z"/>
        <path class="cls-4" d="M159.24,121.52l.51,6.03c0,.73.02,1.47.07,2.2.09,1.42.18,2.68.24,3.78.07,1.14.14,2.25.23,3.31.21,2.62.31,5.43.55,7.78.09.93.19,1.91.26,2.93.14,1.86.33,4.21.6,7.04.26,2.79.64,5.61.89,8.55.04.54.21,1.79.5,3.75.12.78.18,2.04.19,3.78,0,.35-.04.69-.13,1.04-.13.52-.14,1.02-.06,1.52.24,1.31.53,2.57.86,3.78.1.37.18.77.21,1.18.04.49.09.96.14,1.43.04.42.25.77.26,1.2.02.71.17,1.41.29,2.11.07.43,0,.86-.09,1.29-.77-4.48-1.57-8.95-2.39-13.41-1.26-6.93-2.2-13.04-2.82-18.34-.71-6.07-1.23-12.16-1.57-18.26-.19-3.48-.39-7.53-.6-12.16,0-.05.03-.1.09-.11l1.77-.43h0Z"/>
        <path class="cls-5" d="M203.38,121.74l.62.14c.1.2.14.33.14.43,0,.2-.15.34-.33.34l-.62-.02.19-.89h0Z"/>
        <path class="cls-9" d="M202.79,129.34l.02-1.88.38-4.83.62.02c.17,0,.32-.14.33-.34,0-.09-.04-.24-.14-.43l1.15.25c.05,0,.08.04.08.09l-.53,6.51s-.03.07-.08.06c-.63-.08-1.23.1-1.83.54h0v.02h0Z"/>
        <path class="cls-13" d="M202.43,121.99s.03.02.03.03l-.02.56c-.05,1.55-.16,2.8-.23,2.8h-.03c-.08,0-.09-1.26-.03-2.82l.02-.56s.02-.03.03-.03h.24v.02h0Z"/>
        <path class="cls-11" d="M154.5,127.87c-.08-.06-.15-.12-.23-.17-.08-.06-.14-.14-.19-.22-.31-.65-.67-1.29-1.08-1.93-.73-1.14-1.62-1.57-2.74-2.14-.26-.13-.54-.32-.86-.57-.24-.2-.49-.37-.76-.51.06-.1.15-.15.29-.16,2.43-.08,4.49-.12,6.15-.14.41,0,.79.03,1.16.11.06,0,.09.05.09.11l.24,4.89c0,.06-.03.11-.09.14-.65.29-1.31.49-1.99.6h0Z"/>
        <path class="cls-4" d="M154.5,127.87c-.43.16-.75.05-.94-.34-.37-.74-.73-1.56-1.23-2.15-.72-.88-1.91-1.35-2.83-1.9-.48-.28-.76-.66-.84-1.15.26.14.52.31.76.51.31.25.6.44.86.57,1.13.57,2.02,1,2.74,2.14.41.64.77,1.28,1.08,1.93.04.09.1.16.19.22.08.06.15.11.23.17h0Z"/>
        <path class="cls-10" d="M184.62,124.85h0c2.88-.07,5.75-.04,8.61.08,2.05.08,4.01.26,5.87.51.03,0,.04.02.03.04h0s-.02.03-.04.03c-1.65-.12-3.21-.2-4.69-.26-3.34-.11-6.44-.23-9.33-.35-.15,0-.31-.02-.45-.03-.02,0-.03,0-.03-.03h.02Z"/>
        <path class="cls-10" d="M162.51,125.82c.34-.08.68-.14,1.02-.18,4.62-.59,9.3-.83,14.05-.71h.02v.02s0,0-.02,0c-5.46.32-10.49.62-15.07.89-.09,0-.09-.01,0-.03h0Z"/>
        <path class="cls-9" d="M201.88,127.24c-.08.72-.24,1.89-.49,3.51-.33,2.18-.65,5.06-.94,8.64-.1,1.21-.22,2.34-.37,3.4-.45,3.37-.89,6.03-1.33,7.98-2.15,9.67-3.63,16.63-4.42,20.89-.84,4.55-1.69,8.57-2.52,12.09-.17.71-.3,1.62-.38,2.75l-6.24-.31c-.09,0-.13-.05-.11-.14.17-.88.3-1.81-.38-2.51-.91-.94-1.53-1.73-1.47-3.16.28-6.61.53-13.21.74-19.81.14-1.05.2-2.1.2-3.16,0-.14,0-.29.02-.43.02-.18.03-.32.03-.43.03-1.95.1-3.81.22-5.58.1-1.52.17-2.66.2-3.41.2-5.02.41-10.04.6-15.07,0-.06.05-.6.15-1.62.08-.74.03-1.46-.13-2.15l-.38-.86,16.99-.6h0ZM197.58,143.93c.03.06.07.09.09.09s.05-.02.07-.07c.2-.6.35-1.23.46-1.9.18-1.05.35-2.07.5-3.05.08-.49.29-.92.33-1.42.09-1.05.41-2.23.55-3.13.04-.29.05-.6,0-.95.09-.42.1-.82.02-1.2-.09-.41-.43-.6-.82-.54-.69.12-1.22.53-1.58,1.23-.3.58-.92.78-1.4,1.15-.39.29-.67.63-.86,1.02-.1.22-.17.61-.2,1.17-.67,11.7-1.18,19.88-1.52,24.58-.56,7.56-1.1,14.78-1.63,21.65-.02.27-.03.54-.02.82h0c.41-2.61.82-5.19,1.3-7.89.55-3.06,1.06-6.14,1.52-9.23,1.12-7.43,2.17-14.87,3.16-22.32h.03Z"/>
        <path class="cls-3" d="M202.81,127.46l-.02,1.88c-.31.37-.5.82-.56,1.34-.2,1.57-.29,3.32-.3,5.22,0,.05.03.15.09.32-.09.03-.14.08-.14.14-.38,7.4-1.04,14.3-1.78,21.43-.36,3.46-.81,7.18-1.36,11.17-.2,1.39-.27,2.74-.6,4.11-.14.61-.26,1.22-.33,1.8-.19,1.46-.38,2.96-.58,4.52-.31,2.42-.58,4.8-.8,7.15,0,.09-.05.15-.13.21-.06.04-.07.09-.03.14l.05.08-4.88-.46c.09-1.13.21-2.04.38-2.75.83-3.52,1.68-7.54,2.52-12.09.79-4.26,2.26-11.23,4.42-20.89.43-1.95.88-4.61,1.33-7.98.14-1.06.26-2.2.37-3.4.3-3.58.61-6.46.94-8.64.25-1.62.41-2.78.49-3.51.39,0,.7.07.93.22h0Z"/>
        <path class="cls-9" d="M177.49,127.91c-.77.69-.85,1.62-.81,2.62.67,16.76,1.49,33.63,2.26,50.17.06,1.29-.22,2.17-1.04,3.12-.59.68-.49,1.39-.52,2.2,0,.06-.05.11-.11.11-3.93.15-8,.4-11.97.94-.04,0-.07-.02-.07-.05l-.49-2.81c.09-.43.16-.86.09-1.29-.11-.7-.27-1.4-.29-2.11,0-.42-.21-.78-.26-1.2-.05-.47-.09-.94-.14-1.43-.04-.42-.11-.81-.21-1.18-.33-1.22-.62-2.47-.86-3.78-.09-.49-.07-1,.06-1.52.09-.35.13-.7.13-1.04,0-1.74-.07-3-.19-3.78-.29-1.96-.46-3.21-.5-3.75-.25-2.95-.64-5.76-.89-8.55-.26-2.83-.45-5.18-.6-7.04-.08-1.02-.16-2-.26-2.93-.25-2.35-.34-5.16-.55-7.78-.09-1.07-.16-2.17-.23-3.31-.06-1.1-.14-2.36-.24-3.78-.05-.73-.08-1.47-.07-2.2l17.74.37h0ZM169.32,157.94c.05-.08.07-.22.06-.41-.13-3.79-.28-7.19-.46-10.21-.22-3.75-.35-7.48-.5-11.32-.02-.44-.02-.73-.38-1.05-.36-.31-.95-.79-1.79-1.44-.48-.37-.94-.55-1.38-.56,0-.26-.06-.46-.16-.6-.12-.17-.31-.26-.57-.29-.54-.04-1.01.15-1.42.58-.24.25-.3.59-.2,1.02.02.06.05.09.12.08.13-.03.25-.07.36-.14.08-.05.18,0,.19.09.02.18.04.35.07.51,1.46,8.63,2.75,16.53,3.88,23.69,1.06,6.72,2.01,12.49,2.82,17.29.19,1.11.34,2.15.45,3.1.24,1.99.53,4.19.88,6.58,0,.02.02.03.03.04.04,0,.06,0,.06-.04,0-.57-.03-1.2-.07-1.88-.61-8.35-1.28-16.69-1.98-25.03h0Z"/>
        <path class="cls-11" d="M185.28,128.7c.15.69.2,1.4.13,2.15-.1,1.02-.15,1.57-.15,1.62-.2,5.02-.4,10.04-.6,15.07-.03.76-.09,1.9-.2,3.41-.12,1.77-.19,3.63-.22,5.58,0,.11,0,.26-.03.43-.02.14-.03.29-.02.43,0,1.06-.05,2.11-.2,3.16,0-1.83.05-3.64.02-5.56,0-.04.02-.08.04-.11.05-.05.08-1.26.06-3.62,0-1.33,0-2.47.03-3.41.18-5.95.29-11.63.33-17.02,0-.2-.03-.41-.08-.64-.39-1.78-3.51-1.69-4.79-1.38-.69.17-1.13.57-1.34,1.21,0,0,0,.02-.03,0l-.04-.02s-.03-.02-.02-.04c.39-1.23,1.69-1.46,2.82-1.51,1.75-.08,3.22.29,4,2.03.1.23.16.22.18-.03l.11-1.76h0Z"/>
        <path class="cls-4" d="M212.15,130.08c0,.07,0,.13-.07.17-.04.03-.09.05-.14.04-1.29-.05-2.56-.12-3.84-.2-.68-.04-1.37-.07-2.05-.09-.67,0-1.36-.03-2.06-.04.03-.29.13-.43.31-.43,2.62.09,5.24.26,7.85.54h0Z"/>
        <path class="cls-13" d="M212.15,130.08c1.37.22,2.67.59,3.92,1.12.37.41.81.69,1.31.85.31.14.51.34.59.6,1.08,1.65,1.62,3.42,1.62,5.33,0,2.5-.08,5.54-.2,9.11-.17,4.96-.33,9.93-.49,14.89-.03,1.15-.09,2.26-.15,3.33-.13.4-.25.79-.33,1.17-.1.45-.21.86-.34,1.23-.88,2.57-3.28,4.21-5.72,5.32-2.33,1.06-4.77,1.79-7.18,2.37-1.76.42-3.69.79-5.75,1.14v-1.5c0-.18.09-.3.25-.37,1.53-.6,3.1-1.14,4.7-1.64,2.05-.64,3.82-1.39,5.52-2.35,1.51-.85,2.64-1.97,3.4-3.38.49-.83.77-1.52.85-2.04.2-1.37.16-3.27.17-4.87.06-7.78,0-15.16-.15-22.13-.03-1.41-.42-2.7-1.94-2.96-1.06-.18-2.2-.09-3.33-.09-1.62,0-3.27-.08-4.97-.2-.13,0-.23-.12-.22-.26l.3-4.75c.7.02,1.39.03,2.06.04.68.02,1.37.04,2.05.09,1.28.08,2.55.14,3.84.2.05,0,.1-.02.14-.04.05-.04.08-.09.07-.17h0Z"/>
        <path class="cls-5" d="M217.25,131.72c-.2,0-.16.1.14.34-.49-.16-.94-.44-1.31-.85l1.17.52h0Z"/>
        <path class="cls-4" d="M217.25,131.72c2.03,1.15,3.15,2.92,3.35,5.33.09,1.03.11,2.81.07,5.35-.08,4.68-.2,10.44-.39,17.28-.07,2.45-.19,4.44-.36,5.96-.23,2.04-1.06,3.82-2.47,5.34h-.03s-.02-.03,0-.05c1.3-1.44,1.86-3.37,1.97-5.29.09-1.44.14-2.89.16-4.37.1-7.13.21-14.37.31-21.69.03-2.55-.16-4.78-1.88-6.91-.08-.26-.27-.45-.59-.6-.3-.23-.34-.34-.14-.34h0Z"/>
        <path class="cls-10" d="M199.61,133.51c-.14-.14-.29-.21-.43-.22-.06,0-.09.02-.1.08l-1.5,10.56c-.99,7.45-2.04,14.89-3.16,22.32-.46,3.08-.97,6.15-1.52,9.23-.49,2.7-.89,5.28-1.3,7.89h0c0-.27,0-.54.02-.82.52-6.87,1.06-14.09,1.63-21.65.35-4.69.86-12.88,1.52-24.58.03-.55.1-.94.2-1.17.19-.39.47-.73.86-1.02.49-.37,1.11-.57,1.4-1.15.36-.7.89-1.1,1.58-1.23.38-.07.73.13.82.54.09.38.08.78-.02,1.2h-.02Z"/>
        <path class="cls-10" d="M164.86,132.97c.55.53,1.08,1.04,1.6,1.53.55.53.86,1.17.93,1.93.23,2.51.45,5.01.66,7.52.4,4.66.82,9.32,1.27,13.99.71,8.34,1.37,16.68,1.98,25.03.05.69.08,1.31.07,1.88,0,.04-.02.06-.06.04-.02,0-.03-.02-.03-.04-.34-2.4-.64-4.59-.88-6.58-.11-.95-.26-1.99-.45-3.1-.82-4.8-1.75-10.56-2.82-17.29-1.13-7.15-2.43-15.05-3.88-23.69-.03-.16-.05-.33-.07-.51,0-.09-.11-.14-.19-.09-.11.08-.23.12-.36.14-.06,0-.1-.02-.12-.08-.11-.43-.04-.77.2-1.02.41-.43.88-.62,1.42-.58.26.03.45.12.57.29.1.14.15.35.16.6h0Z"/>
        <path class="cls-11" d="M169.32,157.94c-.44-4.66-.87-9.32-1.27-13.99-.21-2.51-.43-5.01-.66-7.52-.07-.77-.38-1.41-.93-1.93-.52-.49-1.06-1-1.6-1.53.44,0,.91.2,1.38.56.83.65,1.43,1.12,1.79,1.44.37.31.37.6.38,1.05.15,3.83.28,7.56.5,11.32.18,3.01.33,6.42.46,10.21,0,.2-.02.33-.06.41h0Z"/>
        <path class="cls-13" d="M199.61,133.51c.04.35.03.66,0,.95-.14.9-.46,2.08-.55,3.13-.05.51-.26.93-.33,1.42-.15.98-.32,2-.5,3.05-.12.66-.27,1.29-.46,1.9-.02.05-.03.08-.07.07-.03,0-.06-.03-.09-.09l1.5-10.56c0-.06.04-.09.1-.08.14.02.28.09.43.22h-.02Z"/>
        <path class="cls-9" d="M202.04,136.22c.31.62,1.23.83,1.89.95.06,0,.09.05.09.11-.62,11.58-2,23.06-3.79,34.65,0,.08-.05.14-.12.18-.71.43-1.53.82-1.81,1.63-.09.24-.15.71-.22,1.4-.09.94-.16,2.03.6,2.71.04.03.06.09.06.14,0,.12,0,.25-.03.37-.46,2.95-.9,5.86-1.34,8.71,0,.03-.03.05-.07.05l-.96-.14-.05-.08c-.03-.06-.03-.1.03-.14.08-.05.12-.13.13-.21.22-2.35.49-4.73.8-7.15.2-1.56.39-3.06.58-4.52.08-.58.19-1.17.33-1.8.33-1.37.41-2.72.6-4.11.54-3.98,1-7.7,1.36-11.17.74-7.13,1.4-14.03,1.78-21.43,0-.06.05-.1.14-.14h0Z"/>
        <path class="cls-12" d="M181.21,149.8s-.03.06-.05.05h0s-.06-.03-.05-.05l-.1-9.57s.03-.06.05-.05h0s.06.03.05.05l.1,9.57h0Z"/>
        <path class="cls-9" d="M180.99,160.49s0-.02.02-.02h0s.02,0,.02.02c.2,6.61.44,13.05.71,19.28.06,1.32.34,2.39,1.48,3.22.43.31.82.63,1.18.98.3.28.41.62.35,1.03-.03.21-.09.22-.15,0-.43-1.33-1.71-1.67-3-1.65-.79,0-1.51.06-2.14.15-.11.02-.13,0-.03-.09,1.46-1.26,1.37-2.6,1.4-4.37.09-6.18.14-12.37.17-18.56h0Z"/>
        <path class="cls-12" d="M218.74,165.31c-.03,1.53-.38,2.92-1.08,4.16-1.52,2.69-4.62,4.41-7.43,5.42-3.4,1.23-6.98,1.86-10.75,1.88-.18,0-.29-.07-.35-.2.13-.04.22-.06.28-.04,2.07-.34,3.98-.72,5.75-1.14,2.43-.57,4.85-1.3,7.18-2.37,2.44-1.12,4.85-2.75,5.72-5.32.13-.37.24-.77.34-1.23.09-.38.2-.77.33-1.17h0Z"/>
        <path class="cls-4" d="M199.41,176.53c-.06,0-.14,0-.28.04-.03-.52-.03-1.05,0-1.57.03-.55.26-.68.69-.9,2.33-1.17,4.82-1.98,7.26-2.86,1.29-.46,2.53-1.06,3.73-1.8.95-.59,1.78-1.3,2.49-2.15-.76,1.4-1.89,2.53-3.4,3.38-1.7.96-3.47,1.72-5.52,2.35-1.6.49-3.17,1.05-4.7,1.64-.16.06-.25.19-.25.37v1.5h-.02,0Z"/>
        <path class="cls-4" d="M201.62,194.35c-.11-.14-.2-.31-.23-.53-.04-.25-.1-.42-.17-.52-.54-.73-1.85-1.17-2.73-1.29-.89-.11-1.9-.19-3-.22-5.44-.16-10.59-.17-15.47-.03-2.32.07-4.49.17-6.52.3-2.09.13-4.08.35-5.97.66-2.07.34-3.87.94-4.84,2.95-.83,1.7-1.17,3.34-1.66,5.06-.03.1.05.21.15.2,1.73,0,3.41.11,5.06.35l-8.14.19c-.09,0-.1-.02-.02-.06.82-.38,1.26-1.34,1.46-2.2.48-2.01.54-3.82.66-5.78.1-1.51.84-2.11,2.24-2.22,1.79-.14,3.52-.14,5.28-.18,10.1-.19,20.23-.1,30.39.26.46.02,1.08.07,1.86.15.77.09,1.23.54,1.38,1.35.13.74.2,1.26.23,1.57h.02Z"/>
        <path class="cls-11" d="M201.62,194.35c.14.73.26,1.5.35,2.32.22,1.86.39,3.64,1.75,4.89.05.05.04.07-.03.07-1.97-.07-3.96-.11-5.97-.14-10.51-.13-21-.2-31.45-.22-1.65-.24-3.35-.35-5.06-.35-.11,0-.19-.1-.15-.2.49-1.72.83-3.35,1.66-5.06.97-2.01,2.78-2.61,4.84-2.95,1.89-.31,3.87-.53,5.97-.66,2.03-.13,4.21-.22,6.52-.3,4.87-.14,10.03-.14,15.47.03,1.11.03,2.1.11,3,.22.88.11,2.19.55,2.73,1.29.08.1.13.27.17.52.03.21.11.39.23.53h-.02ZM177.29,192.64c-2.93.06-6.15.29-9.18.69-2.02.26-3.79.76-4.8,2.59-.5.92-.92,2.06-1.26,3.44,0,.02,0,.03.03.04l.04.02h.02c.31-.81.66-1.63,1.06-2.45.94-1.95,2.49-3.06,4.66-3.32,3.02-.37,6.05-.4,9.13-.41,4.89-.02,9.87-.02,14.93,0,.31,0,.63,0,.94-.02.97-.04.97-.1,0-.18-2.89-.23-6.15-.38-9.81-.47-1.83-.04-3.8.04-5.77.09h0l.02-.02h0Z"/>
        <path class="cls-4" d="M177.29,192.64c1.97-.03,3.94-.13,5.77-.09,3.65.09,6.93.24,9.81.47.96.08.96.14,0,.18-.31.02-.63.03-.94.02-5.06-.02-10.04-.02-14.93,0-3.08,0-6.11.04-9.13.41-2.17.26-3.73,1.37-4.66,3.32-.4.83-.75,1.65-1.06,2.45h-.02l-.04-.02s-.03-.02-.03-.04c.33-1.38.75-2.52,1.26-3.44,1.01-1.83,2.78-2.32,4.8-2.59,3.04-.4,6.26-.64,9.18-.69h0l-.02.02h0Z"/>
        <path class="cls-4" d="M215.71,209.96c-.06.13-.11.13-.14,0-.12-.34-.24-.58-.37-.71-2.6-2.66-5.77-3.42-9.38-3.69-3.23-.24-6.39-.18-9.72-.2-1.13,0-2.27,0-3.42.02-7.3.12-14.48.22-21.54.31-3.46.04-6.89.14-10.31.3-1.46.07-2.98.2-4.57.41-1.72.22-3.22.61-4.51,1.18-2.25.99-3.9,2.6-4.98,4.84h0l.04.03s.06.02.09-.02c2.6-3.82,6.99-5.02,11.46-5.48,2.63-.27,5.43-.41,8.21-.48,11.19-.3,21.95-.32,33.02-.25,1.63,0,3.39.09,5.29.23,2.12.15,4,.51,5.65,1.06.69.23,3.01,1.18,3.07,1.95,0,.09-.07.18-.16.17-2.25-.14-4.45-.37-6.73-.49-3.8-.19-7.66-.2-11.26-.21-11.05-.04-21.89-.1-32.51-.18-2.91-.03-5.88.12-8.75.74-3.41.73-6.41,2.49-7.82,5.81-.44,1.05-.76,1.86-.94,2.44.07-2.35.28-4.64.65-6.87.23-1.41.66-2.62,1.28-3.63,1.9-3.09,6.59-3.73,9.9-3.94,2.49-.15,5.04-.25,7.57-.25,11.44,0,22.85.11,34.22.32,2.73.05,5.46.21,8.17.47,1.23.12,2.45.37,3.7.75,2.64.81,4.25,2.59,4.83,5.32h0v.02Z"/>
        <path class="cls-11" d="M215.71,209.96c.19.69.33,1.4.43,2.12.4,2.89.59,5.75.76,8.64.28,4.74.48,9.37.58,13.9,0,.15-.01.15-.03,0-.38-3.13-.77-6.37-1.17-9.71-.23-1.92-.54-3.92-.92-6.01-.3-1.64-.75-3.1-1.34-4.38-1.13-2.42-3.43-3.53-5.92-4-1.48-.28-2.97-.48-4.47-.6-2.58-.2-5.26-.31-8.04-.35-12.16-.14-23.03-.09-32.64.14-1.86.04-3.83.17-5.91.37-3.69.35-6.93,1.58-8.36,5.29-.84,2.2-1.3,4.71-1.66,7.03-.72,4.72-1.42,9.53-2.12,14.45-.09.64-.25,2.04-.48,4.21,0,.12-.06.28-.14.49-.02.03-.04.06-.08.06h-.02s-.03-.03-.03-.04c.02-.43.03-.88.06-1.34.38-7.79.67-13.93.87-18.4.07-1.6.18-2.96.31-4.09.18-.59.49-1.4.94-2.44,1.41-3.33,4.41-5.08,7.82-5.81,2.87-.61,5.84-.76,8.75-.74,10.61.08,21.45.14,32.51.18,3.6,0,7.46.03,11.26.21,2.27.11,4.49.34,6.73.49.09,0,.17-.08.16-.17-.06-.76-2.38-1.72-3.07-1.95-1.64-.55-3.52-.9-5.65-1.06-1.89-.14-3.65-.21-5.29-.23-11.07-.08-21.83-.05-33.02.25-2.78.08-5.58.21-8.21.48-4.47.46-8.87,1.66-11.46,5.48-.03.03-.05.04-.09.02l-.04-.03h0c1.07-2.25,2.73-3.86,4.98-4.85,1.29-.57,2.8-.96,4.51-1.18,1.6-.2,3.12-.34,4.57-.41,3.41-.15,6.85-.26,10.31-.3,7.07-.09,14.25-.2,21.54-.31,1.15-.02,2.29-.03,3.42-.02,3.33.03,6.49-.03,9.72.2,3.61.26,6.79,1.02,9.38,3.69.13.13.25.37.37.71.04.12.09.12.14,0h0l.03.02h0Z"/>
        <path class="cls-7" d="M157.21,241.33c-2.67-.33-4.5-1.36-4.65-4.32-.26-5.35-.3-10.9-.15-16.64.05-1.84.09-3.69.66-5.36.41-1.22,1.21-1.85,2.4-2.24,3.14-1.05,6.44-1.09,9.91-1.17,11.09-.29,21.94-.2,32.53.25,2.43.1,4.81.31,7.16.64.72.1,1.43.27,2.1.53,1.97.73,2.33,3.12,2.5,4.91.38,4.15.39,8.57.35,12.98-.03,2.35-.18,4.55-.44,6.63-.34,2.62-1.95,3.67-4.46,3.98-1.3.16-2.7.26-4.19.32-6.19.23-12.23.41-18.22.37-7.58-.04-14.78-.22-21.59-.52-1.29-.06-2.6-.17-3.91-.33h0v-.02h0ZM170.06,232.06c1.34,2.9,3.51,4.91,6.5,6.05,2.66,1.01,5.39,1.17,8.17.48,3.13-.77,5.6-2.74,7.35-5.5.11-.18.31-.29.52-.3,3.31-.18,6.66-.3,9.93-.77,1.18-.17,3.56-.62,4.09-1.86.87-2.03.87-5.04-2.08-5.2-3.17-.19-6.36-.3-9.55-.35-.89,0-1.57-.42-2.07-1.21-.55-.89-1-1.87-1.61-2.71-1.51-2.05-3.46-3.47-5.85-4.27-3.45-1.15-7.36-.87-10.54.99-2.35,1.37-4.55,3.92-5.02,6.72-.07.42-.32.63-.76.64-4.41.09-8.31.21-11.68.37-1.52.07-3.17,1.62-2.21,3.18.2.32.41.64.51,1,.33,1.2.8,1.66,2.04,1.86,1.03.16,2.11.28,3.25.35,2.43.15,4.97.26,7.61.33.37,0,.77.03,1.18.06.09,0,.15.06.19.14h0Z"/>
        <path class="cls-10" d="M170.06,232.06c-.03-.08-.11-.13-.19-.14-.41-.03-.81-.05-1.18-.06-2.64-.07-5.18-.18-7.61-.33-1.14-.07-2.23-.19-3.25-.35-1.24-.2-1.71-.66-2.04-1.86-.1-.36-.31-.68-.51-1-.95-1.57.69-3.12,2.21-3.18,3.38-.15,7.27-.28,11.68-.37.43,0,.69-.22.76-.64.47-2.8,2.68-5.35,5.02-6.72,3.18-1.86,7.08-2.14,10.54-.99,2.39.8,4.35,2.22,5.85,4.27.61.83,1.05,1.82,1.61,2.71.49.79,1.18,1.19,2.07,1.21,3.2.05,6.38.16,9.55.35,2.95.17,2.95,3.18,2.08,5.2-.54,1.24-2.91,1.69-4.09,1.86-3.29.47-6.62.59-9.93.77-.21,0-.4.12-.52.3-1.75,2.76-4.21,4.72-7.35,5.5-2.78.69-5.5.53-8.17-.48-3-1.13-5.16-3.15-6.5-6.05h0ZM168.97,225.49c-3.79.08-7.58.15-11.36.22-.6,0-1.08.19-1.43.53-.44.43-.6.94-.45,1.53.07.3.16.53.28.69.05.08.12.11.21.11,6.09-.11,12.21-.13,18.35-.05.03,0,.06-.02.07-.04.1-.18.16-.37.17-.6.11-2.43,1.12-4.29,3.01-5.56,1.9-1.28,4.59-1.28,6.59-.24,2.48,1.29,3.35,3.28,3.35,6.02,0,.08.04.12.12.12,5.43.09,10.9,0,16.22,0,.65,0,1.04-.31,1.17-.9.26-1.36-.85-1.67-1.96-1.69-2.76-.04-5.68-.09-8.78-.12-.98,0-2.03-.38-2.53-1.29-.27-.49-.5-1.01-.7-1.55-.51-1.03-1.26-2.03-2.26-3.01-1.95-1.92-4.23-2.96-6.84-3.13-3.07-.2-5.73.6-7.97,2.39-1.93,1.54-3.13,3.36-3.6,5.46-.2.89-.87,1.06-1.69,1.11h.03ZM180.13,221.86c-1.13.23-2.08.76-2.84,1.59-.43.36-.78.8-1.06,1.33-.49.92-.72,1.92-.66,2.96,0,.09.03.16.09.2.05.04.12.08.21.1.39,2.35,2.3,3.99,4.61,4.26.91.09,1.77,0,2.56-.26,1.97-.6,3.42-1.96,3.79-3.97.7-3.86-2.89-7.07-6.69-6.21h0ZM205.25,225.86c.44.38.75.85.89,1.41,0,.03.03.04.05.03h.04v-.03c-.08-.64-.39-1.14-.94-1.5h-.03l-.03.03v.04h.02ZM175.33,229.21c-.02.23.03.45.14.68.47.94,1.08,1.71,1.83,2.31.08.06.09.05.03-.03-.1-.14-.22-.27-.35-.37-.29-.21-.49-.63-.72-.91-.38-.48-.66-1.12-.86-1.69-.04-.13-.08-.12-.09,0h0v.02ZM171.51,231.93c-.17-.04-.38-.04-.64,0-.06,0-.07.04-.04.09.91,1.8,2.24,3.22,3.97,4.24.34.2.71.36,1.12.46.8.43,1.63.74,2.49.93,1.8.56,3.62.64,5.46.24,3.34-.72,6.38-2.89,7.95-6.02.03-.06-.02-.13-.08-.13l-.83.02-2.83.06c-.07,0-.13.03-.17.09-1.46,2.23-3.54,3.35-6.25,3.37-2.9.02-5.13-1.05-6.72-3.19-.06-.09-.15-.13-.26-.14l-3.17-.03h0Z"/>
        <path class="cls-4" d="M191.32,222.68l-.1.05c-.42-.72-.92-1.39-1.51-1.98-.19-.24-.42-.44-.7-.61-1.03-.63-2-1.18-2.91-1.68-1.8-.97-4.44-1.01-6.4-.71-1.49.23-3.33,1-4.58,2.04-.76.63-1.34,1.2-1.75,1.71-.56.71-1.18,1.61-1.86,2.72-.4.65-.84,1.33-1.61,1.61-.05.02-.1.02-.14,0l-.77-.32c.82-.04,1.48-.21,1.69-1.11.48-2.1,1.68-3.92,3.6-5.46,2.24-1.79,4.89-2.59,7.97-2.39,2.6.17,4.88,1.22,6.84,3.13,1,.99,1.75,1.99,2.26,3.01h0Z"/>
        <path class="cls-13" d="M189.71,220.75c.39.76.89,1.44,1.47,2.05.03.03.04.03.06,0s0-.05-.03-.06l.1-.05c.19.54.43,1.06.7,1.55.5.91,1.55,1.28,2.53,1.29,3.09.03,6.02.07,8.78.12,1.1.02,2.2.32,1.96,1.69-4.2.13-8.41.2-12.63.2-1.12,0-2.24-.03-3.34-.1-.1,0-.2-.09-.2-.2-.03-.56-.1-1.07-.21-1.54-.26-1.14-.91-2.44-1.82-3.33-2.05-1.97-4.43-2.76-7.12-2.35-1.34.2-2.52.77-3.57,1.68-1.78,1.57-2.61,3.51-2.49,5.83,0,.09-.07.16-.16.16-5.37-.09-10.76-.1-16.16-.03-.72,0-1.34.04-1.85.11-.14-.58,0-1.09.45-1.53.35-.34.82-.52,1.43-.53,3.79-.07,7.58-.14,11.36-.22l.77.32c.05.02.1.02.14,0,.76-.28,1.21-.96,1.61-1.61.68-1.11,1.31-2.01,1.86-2.72.41-.51,1-1.08,1.75-1.71,1.26-1.04,3.09-1.8,4.58-2.04,1.96-.31,4.61-.26,6.4.71.91.49,1.88,1.05,2.91,1.68.28.17.51.37.7.61h0v.04h0ZM183.13,219.56l.49.02c.09,0,.16-.07.16-.15v-.09c.02-.32-.14-.6-.36-.6h-.03c-.21,0-.4.25-.41.58v.09c0,.09.06.16.15.17h0ZM179.64,219.79c.24,0,.43-.2.44-.47,0-.26-.19-.49-.42-.49s-.43.2-.44.48c0,.26.19.49.42.49h0ZM187.55,221.55c.23-.09.33-.37.24-.63-.09-.26-.36-.41-.59-.32-.23.09-.33.37-.24.63.09.26.36.41.59.32h0ZM175.53,221.78c.21-.02.37-.24.35-.5-.02-.26-.21-.45-.43-.43s-.37.24-.35.5c.02.26.21.45.43.43h0ZM173.24,224.34c.19.03.37-.13.4-.35.03-.22-.1-.42-.29-.44s-.37.13-.4.35c-.03.22.1.42.29.44h0Z"/>
        <path class="cls-10" d="M183.13,219.56c-.09,0-.15-.08-.15-.17v-.09c.02-.32.2-.59.41-.58h.03c.21,0,.37.28.37.6v.09c0,.09-.08.15-.17.15l-.49-.02h0Z"/>
        <path class="cls-10" d="M179.64,219.79c-.24,0-.43-.22-.42-.49,0-.26.2-.48.44-.48s.43.22.42.49c0,.26-.2.48-.44.47h0Z"/>
        <path class="cls-12" d="M205.26,227.33c-.13.6-.52.9-1.17.9-5.32,0-10.79.09-16.22,0-.08,0-.12-.04-.12-.12,0-2.74-.87-4.73-3.35-6.02-2-1.04-4.69-1.04-6.59.24-1.9,1.27-2.9,3.12-3.01,5.56,0,.22-.07.42-.17.6-.02.03-.04.04-.07.04-6.15-.08-12.27-.06-18.35.05-.09,0-.16-.03-.21-.11-.11-.17-.21-.4-.28-.69.52-.07,1.13-.1,1.85-.11,5.4-.07,10.79-.06,16.16.03.09,0,.16-.08.16-.16-.13-2.32.71-4.26,2.49-5.83,1.04-.92,2.23-1.47,3.57-1.68,2.7-.41,5.07.37,7.12,2.35.92.89,1.56,2.19,1.82,3.33.11.46.18.98.21,1.54,0,.1.09.2.2.2,1.1.07,2.2.1,3.34.1,4.22,0,8.44-.07,12.63-.2h0v-.03h0Z"/>
        <path class="cls-10" d="M187.55,221.55c-.23.09-.49-.06-.59-.32s0-.54.24-.63.49.06.59.32,0,.54-.24.63h0Z"/>
        <path class="cls-10" d="M189.71,220.75c.59.6,1.08,1.26,1.51,1.98.04,0,.05.03.03.06-.02.03-.03.03-.06,0-.59-.6-1.08-1.29-1.47-2.05h0Z"/>
        <path class="cls-10" d="M175.53,221.78c-.21.02-.41-.18-.43-.43-.03-.26.14-.49.35-.5.21-.02.41.18.43.43.03.26-.14.49-.35.5h0Z"/>
        <path class="cls-12" d="M183.03,232.05c.31-.17.61-.34.9-.51.33-.2.6-.4.82-.61,1.15-1.14,1.86-2.64,1.75-4.26-.02-.27-.11-.54-.28-.78-.49-1.56-1.45-2.67-2.88-3.37-.45-.22-.94-.34-1.42-.49-.28-.09-.57-.13-.88-.14-.31,0-.61-.02-.92-.03,3.79-.85,7.39,2.37,6.69,6.21-.37,2.01-1.82,3.37-3.79,3.97h0Z"/>
        <path class="cls-4" d="M180.13,221.86c.31,0,.61,0,.92.03.31,0,.6.06.88.14.48.14.96.26,1.42.49,1.43.69,2.39,1.81,2.88,3.37.02.08.02.15,0,.23-.03.07-.12.07-.15,0-.7-1.63-1.79-2.78-3.54-3.31-2.15-.66-4.43.19-5.45,2.18-1.06,2.07-.81,3.97.74,5.68.73.81,1.68,1.29,2.82,1.44.07,0,.09.04.05.1-.03.04-.09.09-.2.12-2.32-.27-4.22-1.92-4.61-4.26-.1-1.68.37-3.21,1.43-4.61.77-.83,1.71-1.36,2.84-1.59h-.02Z"/>
        <path class="cls-11" d="M186.22,225.88c.17.25.26.51.28.78.1,1.62-.6,3.12-1.75,4.26-.21.21-.49.42-.82.61-.29.17-.59.34-.9.51-.79.26-1.64.36-2.56.26.11-.04.19-.08.2-.12.03-.06.02-.09-.05-.1-1.14-.15-2.09-.63-2.82-1.44-1.55-1.71-1.8-3.61-.74-5.68,1.01-1.99,3.29-2.83,5.45-2.18,1.75.54,2.83,1.69,3.54,3.31.03.07.13.07.15,0s.03-.14,0-.23h.02Z"/>
        <path class="cls-12" d="M177.29,223.46c-1.06,1.39-1.53,2.93-1.43,4.61-.09-.03-.16-.06-.21-.1-.05-.04-.08-.11-.09-.2-.06-1.06.16-2.04.66-2.96.29-.53.64-.97,1.06-1.33h0Z"/>
        <path class="cls-10" d="M173.24,224.34c-.19-.03-.32-.22-.29-.44.03-.22.2-.37.4-.35.19.03.32.22.29.44-.03.22-.2.37-.4.35h0Z"/>
        <path class="cls-13" d="M205.25,225.86s-.02-.03,0-.04l.03-.03h.03c.55.37.87.86.94,1.5h-.04s-.04,0-.05-.03c-.14-.56-.45-1.03-.89-1.41h0l-.02.02Z"/>
        <path class="cls-12" d="M175.42,229.2c.2.57.48,1.21.86,1.69.23.29.43.71.72.91.13.09.25.21.35.37.05.08.04.09-.03.03-.76-.6-1.36-1.36-1.83-2.31-.11-.23-.16-.46-.14-.68,0-.14.04-.14.09,0h0v-.02Z"/>
        <path class="cls-13" d="M190.89,231.77c-.74,1.38-1.61,2.49-2.59,3.35-.94.83-1.95,1.44-3,1.83-2.14.8-4.44,1.04-6.91.71-.86-.19-1.69-.49-2.49-.93-1.96-1.17-3.42-2.77-4.4-4.8l3.17.03c.1,0,.2.05.26.14,1.57,2.15,3.81,3.21,6.72,3.19,2.71-.02,4.79-1.14,6.25-3.37.03-.06.1-.09.17-.09l2.83-.06h0Z"/>
        <path class="cls-12" d="M178.4,237.66c2.47.33,4.78.09,6.91-.71,1.06-.39,2.05-1,3-1.83.98-.85,1.84-1.97,2.59-3.35l.83-.02c.07,0,.11.07.08.13-1.57,3.12-4.61,5.29-7.95,6.02-1.85.4-3.67.32-5.46-.24h0Z"/>
        <path class="cls-12" d="M171.51,231.93c.98,2.03,2.44,3.63,4.4,4.8-.4-.1-.77-.26-1.12-.46-1.74-1.03-3.06-2.44-3.97-4.24-.03-.05,0-.09.04-.09.26-.04.47-.05.64,0h0Z"/>
        <path class="cls-4" d="M218.35,243.08c-.04.09-.13.09-.25,0-.05-.03-.1-.03-.15,0-.22.14-.42.25-.7.26-1.3.03-2.6.09-3.88.15-1.39.08-2.84.04-4.26.07-8.24.12-16.68.28-25.33.47-6.43.14-12.7.21-16.98.18-7.48-.05-14.71-.13-21.69-.21h-1.48l.17-1.26c0-.06.04-.09.1-.09h.97c4.21.03,8.44.07,12.65.1,6.94.06,13.85.52,20.76.54,8.16.02,16.43-.1,24.8-.36,4.58-.14,9.53-.2,14.84-.16h.23c.09,0,.14.03.17.09.03.05.04.12.03.21h0v.02Z"/>
        <path class="cls-11" d="M218.35,243.08c.07.35.04.81-.07,1.36-.14.75-.57,1.19-1.27,1.34-.42.09-1.44.14-3.08.14-17.15.1-34.3.12-51.45.06l.13-.03c.09-.02.09-.04,0-.07-.04-.02-.08-.03-.12-.03-2.78-.14-5.61-.21-8.37-.38-2.41-.14-4.02-.26-4.83-.35-1.06-.11-2.17-.2-3.35-.28-.46-.03-.84-.07-1.17-.12-.38-.06-.77-.12-1.17-.19l.03-.54h1.48c6.97.09,14.21.16,21.69.21,4.28.03,10.56-.03,16.98-.18,8.66-.2,17.1-.35,25.33-.47,1.41-.02,2.87,0,4.26-.07,1.29-.07,2.59-.12,3.88-.15.27,0,.48-.11.7-.26.05-.03.1-.03.15,0,.12.08.2.08.25,0h0Z"/>
        <path class="cls-4" d="M162.48,245.98c-7.33,0-12.05-.02-14.16-.07-1.47-.03-2.79-.1-3.98-.22-.6-.06-.77-.57-.74-1.16.39.07.78.13,1.17.19.32.05.72.09,1.17.12,1.18.08,2.3.16,3.35.28.81.09,2.42.2,4.83.35,2.76.16,5.59.24,8.37.38.04,0,.09,0,.12.03.09.03.08.05,0,.07l-.13.03h0Z"/>
      </g>
      <g>
        <path class="cls-8" d="M120.1,92.08c2.04,4.29,2.65,7.09,2.95,8.2-.38.27-3.07,1.97-7.66,4.3-8,4.07-13.02,5.92-13.75,6.15-.97-3.43-1.82-6.26-2.85-8.29-2.9-5.7-5.76-8.18-6.93-9.47,1.95-1.62,6.05-4.26,12.22-7.41,5.26-2.68,8.58-3.37,8.79-3.32.41.09,2.49,2.14,5.6,6.63l-8.41,4.28c.08-1.3.1-2.42-.29-3.19-.48-.94-1.81-1.37-2.72-.91-2.53,1.29-3.84,7.66-1.94,11.39,1.14,2.23,3.67,3.21,5.55,2.25,2.5-1.27,3.16-3.61,2.61-4.7s-1.03-1.14-1.84-1.51l8.67-4.42v.02Z"/>
        <path class="cls-8" d="M125.77,99.23c-.34-3.3-.63-6.07-1.26-8.22-1.15-3.96-3.03-7.81-5.44-11.13,1.13-.71,6.93-3.57,16.09-6.23,4.5-1.31,8.2-1.36,8.45-1.19.21.14,3.45,4.18,5.28,10.46,1.18,4.05,1.62,7.33,1.59,9.12l-7.7,2.24c-.04-.74-.19-1.11-.27-1.4-.17-.57-.39-.88-.83-1.31-1.17-1.17-2.45-1.31-4.28-.78-1.93.56-3.21,2.41-3.1,4.2.04.5.17.81.31,1.32.04.13.06.19.12.31l-8.96,2.61h0ZM133.7,77.74c-2,.58-5,5.37-3.99,8.83.57,1.96,2.99,3.18,5.37,2.49,2.98-.87,4.37-5.88,3.53-8.76-.59-2.03-2.5-3.26-4.9-2.56h0Z"/>
        <path class="cls-8" d="M153.4,82.74c.46-.08,1.04-.21,1.5-.25,1.48-.15,3.51-.03,6,.02.17.02.24.08.41.12-.76.64-1.23,1.29-1.15,2.04.18,1.74,1.22,2.56,3.16,2.36,2.07-.21,3.03-1.84,2.9-3.08-.11-1.12-.67-1.99-1.29-2.22-3.96-1.42-7.53-1.02-11.7-.56l-.05-.46c-.21-2.1-1.19-5.75-2.98-9.35,1.47-.52,3.06-.84,4.62-1.17,4-.81,7.15-1.4,9.42-1.63,3.51-.36,6.19-.4,7.95-.08.85,1.17,2.2,4.32,2.75,7.48-1.77-.48-4.54-.66-7.83-.33-.23.02-.32.07-.55.09.15-.51.18-.88.11-1.47-.1-1.02-1.32-1.85-2.79-1.7-2.4.25-3.48,1.62-3.38,2.63.27,2.66,3.28,2.22,10.22,2.04,5.42-.16,4.75,1.07,4.92,2.71.53,5.22.29,8.33-.02,8.59-.55.45-4.5,1.39-11.95,2.15-4.82.49-8.3.25-10.34.39.3-4.18.17-7.05.09-7.84l-.05-.49h.03Z"/>
        <path class="cls-8" d="M179.28,89.26c.84-2.32,1.51-5.48,1.79-9.13.31-4.08-.05-7.98-1.07-11.47,2.22-.49,4.43-.36,6.49-.5,1.66-.1,5.34-.15,9.35.15,3.32.25,6.52.9,8,1.34.33.85,1.02,3.52,1.33,6.82l-8.09-.62c.16-.32.36-.77.38-1.13.06-.79-.34-1.55-1.07-1.97-.63-.35-1.07-.28-1.79-.34-2.53-.19-4.83,1.75-4.96,3.46-.03.33-.17.52.19.54l6.94.53c-1.52,1.74-2.4,3.26-3.07,4.63-.5-.77-1.13-1.28-1.98-1.34-2.01-.15-3.28.94-3.42,2.72-.12,1.58,1.2,2.97,4.06,3.19.86.07,1.33-.03,2.14-.27,1.62-.44,2.48-1.3,2.58-2.65.09-1.15-.46-1.82-1.39-2.62l9.57.73-.02.3c-.25,3.22-.86,6.42-1.85,9.45l-24.11-1.85v.03Z"/>
        <path class="cls-8" d="M218.09,85.77c-.76.41-1.33.91-1.54,1.71-.29,1.12,1.01,2.76,3.5,3.41,1.24.33,2.61-.47,2.94-1.72.61-2.33-2.18-4.4-8.09-5.95-1.63-.43-3.34-.78-5.02-1.02.79-3.14,1.01-7.72.53-11.09,1.74,0,5.47.49,10.38,1.78.25.07.37.13.63.2-.82,1.56-1.57,2.86-1.88,4.01-.64,2.42,0,3.99,1.76,4.46,1.31.34,2.73-.41,3.21-2.22.25-.96.34-2.98-.1-5.32,1.15.17,2.35.41,3.43.7,2.52.66,4.46,1.34,5.52,1.97.44,1.55.72,7.12-.66,12.35-.95,3.61-2.1,6.27-2.85,7.44-2.08.37-6.1.1-11.17-1.24-4.79-1.26-8.56-2.87-11.56-4.04-.18-.08-.24-.13-.42-.21,1.27-2.6,2.14-5.03,2.86-7.47l8.52,2.25h0Z"/>
        <path class="cls-8" d="M242.74,79.74l-.47,4.85c-.02.31-.04.48-.15.76-.38.98-1.28,1.1-2.14.76l-1.45-.56c.58-.31,1.18-.57,1.4-1.15.35-.89-.03-1.46-1.02-1.85-.18-.07-.29-.08-.47-.15l.05-3.24c0-.18.03-.27.09-.42.16-.4.57-.38,1.06-.19l3.08,1.19h.02Z"/>
        <path class="cls-8" d="M243.27,93.88c.42.18.98.4,1.39.62,1.32.69,2.95,1.91,5,3.32.13.11.16.19.27.33-.99.11-1.73.4-2.08,1.07-.81,1.55-.39,2.81,1.33,3.71,1.84.96,3.54.14,4.12-.97.52-.99.54-2.03.15-2.56-2.52-3.37-5.72-5-9.45-6.92l.21-.41c.98-1.87,2.18-5.45,2.67-9.44,1.51.38,3.02.98,4.5,1.57,3.78,1.53,6.74,2.78,8.75,3.83,3.13,1.64,5.39,3.08,6.68,4.31.06,1.45-.54,4.82-1.82,7.76-1.21-1.38-3.43-3.06-6.35-4.59-.21-.11-.31-.12-.51-.23.4-.35.63-.64.91-1.16.47-.91-.08-2.27-1.39-2.96-2.13-1.12-3.8-.57-4.27.34-1.24,2.37,1.51,3.66,7.41,7.34,4.61,2.86,3.38,3.51,2.61,4.98-2.43,4.65-4.35,7.11-4.75,7.16-.71.08-4.52-1.32-11.16-4.79-4.3-2.25-7.06-4.36-8.84-5.37,2.55-3.32,4.03-5.79,4.4-6.49l.23-.44h0Z"/>
      </g>
      <g>
        <path class="cls-8" d="M64.35,236.81c.26.17.6.38.84.57.78.61,1.71,1.61,2.89,2.78.07.08.08.15.14.25-.66-.04-1.19.05-1.5.45-.72.92-.59,1.8.43,2.6,1.09.85,2.31.51,2.82-.15.46-.59.6-1.27.4-1.67-1.25-2.51-3.16-3.97-5.38-5.67l.19-.24c.87-1.11,2.08-3.32,2.87-5.88.95.43,1.87,1.01,2.77,1.57,2.3,1.45,4.09,2.63,5.29,3.56,1.86,1.45,3.17,2.66,3.87,3.63-.13.96-.93,3.1-2.12,4.87-.63-1.05-1.88-2.42-3.62-3.77-.12-.09-.19-.12-.31-.21.31-.18.49-.34.73-.66.42-.54.22-1.5-.56-2.11-1.27-.99-2.42-.83-2.84-.29-1.1,1.41.56,2.58,3.99,5.7,2.69,2.43,1.8,2.71,1.12,3.58-2.15,2.76-3.7,4.15-3.97,4.13-.47-.04-2.81-1.41-6.75-4.48-2.55-1.99-4.12-3.71-5.17-4.58,2.07-1.87,3.33-3.32,3.66-3.73l.2-.26Z"/>
        <path class="cls-8" d="M80.15,255.8l-5.25-3.36c.79-.83,2.29-2.19,3.96-4.81,2.57-4.02,2.77-6.95,3.01-7.32.15-.24,1.38.49,3.75,1.77,1.28.69,2,1.04,3.22,1.83.09.06.15.09.23.17-.73.21-1.22.55-1.7,1.31-.81,1.26-.32,3.64,1.82,5,1.09.7,2.75.27,3.57-1.01.45-.7.66-1.56.73-2.49.41.18.88.43,1.25.67,1,.64,2.18,1.74,3.68,2.95.17.14.09.32.07.46-.21,1.56-1.48,4.93-2.7,6.84-1.53,2.39-3.12,4.22-4.27,5.24l-4.8-3.07c.66-.83,1.27-1.54,1.64-2.11.38-.59.71-1.43,1.09-2.31.16-.37-.03-.93-.42-1.18-.59-.38-1.28-.04-1.84.83-.92,1.45-1.31,2.87-1.6,4.05l-4.25-2.71c.46-.47.91-1.01,1.29-1.61,1.03-1.61,1.28-2.5.6-2.94-.52-.33-1.35.18-2.04,1.28-.49.76-.79,1.61-1.03,2.5Z"/>
        <path class="cls-8" d="M95.05,263.76c1.41-2,2.4-3.48,2.87-4.42,1.42-2.86,1.75-4.76,1.93-5.11.61-1.22,1.88-1.65,2.92-1.27,2.09.74,4.3,1.73,6.59,2.86,4.04,2.01,6.2,4.09,6.27,4.4.04.27-.45,3.56-2.33,7.35-1.46,2.94-2.86,4.16-4.45,3.71-2.23-.62-4.83-1.6-7.3-2.82-3.17-1.58-5.34-3.15-6.49-4.68ZM108.38,258.72c-1.16-.58-2.47-.27-4.01.8-1.03.74-1.63,1.25-2.2,2.4-.63,1.26-.19,2.95,1.25,3.67.97.48,1.8.38,2.8-.15,1.7-.9,3.01-2.19,3.46-3.1.64-1.28-.03-2.99-1.29-3.62Z"/>
        <path class="cls-8" d="M113.66,272.85c1.19-2.14,2-3.72,2.37-4.71,1.1-2.99,1.22-4.92,1.36-5.29.47-1.28,1.69-1.84,2.76-1.58,2.16.51,4.46,1.25,6.86,2.13,4.23,1.56,6.6,3.39,6.71,3.69.07.26-.06,3.59-1.51,7.55-1.13,3.08-2.39,4.44-4.02,4.17-2.28-.37-4.98-1.06-7.56-2.01-3.32-1.22-5.65-2.55-6.96-3.95ZM126.36,266.39c-1.22-.45-2.48,0-3.9,1.24-.95.85-1.48,1.42-1.93,2.62-.49,1.32.13,2.96,1.64,3.51,1.01.37,1.83.18,2.77-.46,1.59-1.08,2.75-2.5,3.1-3.45.49-1.34-.36-2.97-1.68-3.46Z"/>
        <path class="cls-8" d="M134.97,273.26c.23-1.76.45-3.83.12-6.43,1.51.1,4.85.64,9.78,1.86,1.96.49,3.73,1.22,5.38,1.81.17.06.24.15.37.23.2,1.21.18,3.38-.13,6.38l-3.61-.9c.16-.46.31-.99.42-1.44.29-1.17.11-1.92-.46-2.06-.62-.15-.78.21-1.15.78-.48.76-.8,1.86-1.13,3.19-.64,2.56-.3,5.59.57,7.21l-9.16-2.27c1.44-1.25,3.17-3.65,3.88-6.49.24-.96.21-1.56.22-2.55.02-.92-.15-1.42-.85-1.59-.34-.08-.75.29-.88.8-.07.3-.15,1.14-.16,2.27l-3.22-.8Z"/>
        <path class="cls-8" d="M150.53,285.13c.74-1.9,1.24-3.81,1.51-5.81.47-3.51.11-6-.41-8.29,1.03-.24,2.21-.06,3.55,0,1.19.07,1.85.13,3.02.29.11.01.17.04.28.06-.12.6-.3,1.25-.37,1.79-.3,2.22.65,3.59,2.44,3.83,1.05.14,2.4-.68,2.61-2.29.07-.52-.13-1.55-.67-2.8.42.01.91.03,1.32.09.83.11,2.67.42,4.69.93.72,2.4.93,5.38.51,8.52-.28,2.12-.77,4.16-1.45,5.93l-6.15-.82c.78-1.38,1.29-2.67,1.44-3.78.25-1.88-1-3.15-2.53-3.35-1.59-.21-3.15,1.02-3.51,3.68-.12.94-.03,1.88.15,2.86l-6.43-.86Z"/>
        <path class="cls-8" d="M171.72,287.48c.53-1.76.84-3.78.92-5.91.11-3.1-.4-6.02-1.16-8.06.91-.17,3.08-.46,6.12-.57.9,2.04,1.63,5.41,1.51,8.91-.08,2.13-.37,4.15-.87,5.87l-6.51-.24Z"/>
        <path class="cls-8" d="M181.52,287.89c.36-1.6.53-3.75.41-6.19-.14-2.72-.71-5.27-1.68-7.49,1.43-.51,2.9-.61,4.25-.88,1.09-.21,3.52-.56,6.2-.69,2.22-.11,4.39.04,5.41.21.29.54.97,2.24,1.46,4.4l-5.41.28c.08-.22.17-.54.16-.78-.03-.53-.36-1-.88-1.21-.45-.17-.73-.09-1.21-.07-1.69.09-3.05,1.57-2.99,2.71.01.22-.07.36.17.34l4.64-.24c-.86,1.28-1.31,2.36-1.64,3.32-.4-.46-.85-.75-1.43-.72-1.34.07-2.09.9-2.03,2.09.05,1.05,1.04,1.86,2.96,1.77.57-.03.87-.13,1.39-.36,1.04-.43,1.53-1.07,1.48-1.97-.04-.77-.46-1.17-1.14-1.62l6.39-.33v.2c.12,2.15-.01,4.32-.41,6.41l-16.11.83Z"/>
        <path class="cls-8" d="M208.2,279.59c.3-.09.67-.21.98-.28.97-.21,2.33-.28,3.98-.43.11,0,.16.03.28.05-.46.48-.72.94-.61,1.44.25,1.14,1,1.61,2.27,1.33,1.35-.29,1.87-1.44,1.69-2.26-.16-.73-.59-1.27-1.02-1.38-2.73-.65-5.07-.12-7.79.49l-.07-.3c-.3-1.38-1.21-3.72-2.67-5.97.94-.45,1.97-.79,2.98-1.12,2.59-.83,4.64-1.45,6.12-1.77,2.3-.5,4.08-.72,5.26-.64.65.71,1.78,2.7,2.38,4.75-1.21-.19-3.06-.1-5.21.36-.15.03-.21.07-.36.1.06-.35.05-.6-.03-.98-.14-.67-1.01-1.13-1.98-.92-1.57.34-2.19,1.33-2.04,2,.38,1.74,2.34,1.23,6.93.59,3.58-.51,3.23.36,3.46,1.43.74,3.42.81,5.5.62,5.69-.33.34-2.88,1.25-7.76,2.31-3.16.68-5.48.78-6.82,1.03-.11-2.79-.41-4.68-.52-5.2l-.07-.32Z"/>
        <path class="cls-8" d="M227.61,281.22c-.18-2.03-.59-3.96-1.25-5.88-1.15-3.35-2.58-5.42-4.06-7.24.82-.67,1.95-1.04,3.18-1.58,1.09-.47,1.71-.7,2.84-1.09.1-.04.17-.04.28-.07.16.6.29,1.25.47,1.77.73,2.12,2.19,2.92,3.89,2.34,1-.34,1.84-1.68,1.32-3.22-.17-.5-.8-1.33-1.85-2.2.38-.18.83-.38,1.22-.51.79-.27,2.58-.81,4.62-1.25,1.72,1.83,3.23,4.41,4.25,7.4.69,2.02,1.16,4.07,1.34,5.96l-5.87,2.01c.08-1.59-.04-2.96-.4-4.03-.61-1.79-2.3-2.37-3.76-1.88-1.52.52-2.37,2.32-1.5,4.86.31.9.81,1.7,1.41,2.49l-6.14,2.1Z"/>
        <path class="cls-8" d="M247.98,273.95c-.59-2.14-1.08-3.92-1.73-5.27-1.19-2.48-2.85-4.81-4.79-6.73.67-.59,4.17-3.1,9.91-5.85,2.82-1.35,5.25-1.79,5.43-1.7.16.07,2.73,2.38,4.61,6.3,1.22,2.54,1.86,4.65,2.04,5.83l-4.82,2.31c-.11-.48-.24-.71-.33-.89-.17-.36-.36-.54-.69-.77-.9-.64-1.75-.6-2.9-.05-1.21.58-1.85,1.94-1.59,3.1.08.33.2.51.35.83.04.08.06.12.11.19l-5.61,2.69ZM250.86,258.95c-1.25.6-2.7,4.08-1.67,6.24.59,1.23,2.31,1.77,3.8,1.05,1.86-.89,2.24-4.34,1.37-6.15-.61-1.27-2-1.87-3.5-1.15Z"/>
        <path class="cls-8" d="M277.38,251.31c1.58,2.75,2.12,4.58,2.38,5.3-.24.2-1.94,1.47-4.87,3.25-5.11,3.12-8.35,4.6-8.83,4.79-.82-2.23-1.53-4.07-2.32-5.36-2.22-3.64-4.25-5.14-5.09-5.94,1.21-1.18,3.8-3.14,7.75-5.55,3.36-2.05,5.53-2.68,5.67-2.66.28.04,1.77,1.29,4.06,4.12l-5.37,3.28c-.01-.87-.06-1.62-.36-2.1-.37-.6-1.27-.82-1.86-.46-1.62.99-2.16,5.29-.71,7.67.87,1.43,2.6,1.94,3.8,1.21,1.6-.97,1.92-2.56,1.49-3.26s-.74-.71-1.3-.91l5.54-3.38Z"/>
        <path class="cls-8" d="M282.84,254.63c-.71-1.55-1.59-3.31-2.96-5.17-2.07-2.79-4.45-4.81-6.1-5.69.63-.96,2.38-2.78,5.16-4.85.16-.12.26-.2.44-.3-.03.84.38,2.13,1.15,3.17.43.58,1.31.7,1.95.22.9-.67,1.24-2.32.25-3.64-.33-.44-.76-.83-1.2-1.17.31-.28.71-.63,1.06-.9.92-.68,2.22-1.32,3.57-2.27.18-.13.38-.26.62-.13,1.17.58,3.13,2.25,3.39,2.61.52.71.05,1.06-1.03,2.3-.91,1.06-1.39,1.42-1.01,1.93.33.44.63.19,1.14-.08,2.06-1.1,3.4-1.29,3.97-.52,1.48,2,2.18,3.64,2.72,4.72l-4.84,3.6c-.34-.9-.56-1.72-.98-2.28-1.31-1.77-3.66-2.79-5.16-1.67-.88.66-.91,1.94.12,3.33.63.85,1.83,2.09,2.97,2.89l-5.24,3.9Z"/>
      </g>
    </g>
  </g>
</svg>